<?xml version="1.0" encoding="utf-8"?>
<!-- Generator: Adobe Illustrator 16.0.0, SVG Export Plug-In . SVG Version: 6.00 Build 0)  -->
<!DOCTYPE svg PUBLIC "-//W3C//DTD SVG 1.1//EN" "http://www.w3.org/Graphics/SVG/1.1/DTD/svg11.dtd">
<svg version="1.1" id="Calque_1" xmlns="http://www.w3.org/2000/svg" xmlns:xlink="http://www.w3.org/1999/xlink" x="0px" y="0px"
	 width="1280px" height="800px" viewBox="0 0 1280 800" enable-background="new 0 0 1280 800" xml:space="preserve">
<g>
	<g>
		<g>
			<g>
				<g>
					<path id="SVGID_1_" fill="#F9F9F9" d="M1103.59,369.998c16.564,0.637,22.57,9.751,24.588,15.07
						c2.549,6.735,2.396,9.412,2.609,15.539c0,0.146-0.01,0.293-0.01,0.442c-0.002,17.15,13.905,31.059,31.061,31.057l54.354,0.002
						c17.15,0,31.059,13.904,31.059,31.059c0,17.153-13.905,31.062-31.059,31.062h-178.59
						c-16.403,0.001-29.832,12.726-30.969,28.841l-0.09-0.084c-0.43,8.197,0.166,10.604-2.731,18.263
						c-2.015,5.319-8.021,14.438-24.588,15.068l-65.854,0.027c-17.149,0-31.06,13.903-31.059,31.059
						c-0.001,17.153,13.904,31.06,31.059,31.06l42.85,0.002c16.566,0.633,22.572,9.747,24.588,15.066
						c2.261,5.965,2.396,8.754,2.549,13.563c-0.063,0.801-0.104,1.606-0.104,2.425c0,17.152,13.907,31.06,31.061,31.06
						l574.578,0.001c17.154,0.001,31.059-13.904,31.059-31.06c-0.002-17.151-13.906-31.059-31.059-31.059h-50.496
						c-17.15,0-31.059-13.904-31.059-31.06c0-17.153,13.903-31.061,31.059-31.06l104.85,0.001
						c17.151-0.002,31.06-13.906,31.06-31.063c-0.001-17.148-13.906-31.057-31.06-31.058l-93.177,0.001
						c-17.151-0.001-31.058-13.905-31.06-31.061c0-17.151,13.908-31.061,31.06-31.061h217.406c17.151,0,31.058-13.904,31.058-31.061
						c0.001-17.151-13.904-31.058-31.059-31.057l-178.585-0.001c-17.152,0-31.058-13.904-31.058-31.058
						c-0.002-17.151,13.903-31.06,31.058-31.061h-6.901c17.152,0,31.059-13.901,31.059-31.057c0-17.153-13.903-31.06-31.058-31.06
						h-12.538c-17.15,0-31.058-13.904-31.058-31.06c0-17.15,13.905-31.061,31.059-31.058l-3.854-0.003
						c17.152,0.003,31.059-13.902,31.061-31.055c0-17.153-13.906-31.063-31.063-31.062H991.017
						c-17.151,0-31.06,13.905-31.058,31.057c0,17.153,13.902,31.06,31.059,31.059l15.527,0.002
						c17.152,0,31.058,13.904,31.059,31.058c0,17.153-13.904,31.061-31.059,31.06H904.74c-17.148,0.001-31.058,13.905-31.057,31.06
						c-0.002,17.152,13.902,31.058,31.059,31.057l4.979,0.001c13.52,1.831,18.697,9.858,20.537,14.721
						c2.44,6.446,2.403,9.188,2.59,14.78c-0.026,0.515-0.039,1.035-0.041,1.559c0.002,17.15,13.908,31.06,31.062,31.06
						L1103.59,369.998z"/>
				</g>
				<g>
					<g>
						<g>
							<defs>
								<path id="SVGID_2_" d="M1103.59,369.998c16.564,0.637,22.57,9.751,24.588,15.07c2.549,6.735,2.396,9.412,2.609,15.539
									c0,0.146-0.01,0.293-0.01,0.442c-0.002,17.15,13.905,31.059,31.061,31.057l54.354,0.002
									c17.15,0,31.059,13.904,31.059,31.059c0,17.153-13.905,31.062-31.059,31.062h-178.59
									c-16.403,0.001-29.832,12.726-30.969,28.841l-0.09-0.084c-0.43,8.197,0.166,10.604-2.731,18.263
									c-2.015,5.319-8.021,14.438-24.588,15.068l-65.854,0.027c-17.149,0-31.06,13.903-31.059,31.059
									c-0.001,17.153,13.904,31.06,31.059,31.06l42.85,0.002c16.566,0.633,22.572,9.747,24.588,15.066
									c2.261,5.965,2.396,8.754,2.549,13.563c-0.063,0.801-0.104,1.606-0.104,2.425c0,17.152,13.907,31.06,31.061,31.06
									l574.578,0.001c17.154,0.001,31.059-13.904,31.059-31.06c-0.002-17.151-13.906-31.059-31.059-31.059h-50.496
									c-17.15,0-31.059-13.904-31.059-31.06c0-17.153,13.903-31.061,31.059-31.06l104.85,0.001
									c17.151-0.002,31.06-13.906,31.06-31.063c-0.001-17.148-13.906-31.057-31.06-31.058l-93.177,0.001
									c-17.151-0.001-31.058-13.905-31.06-31.061c0-17.151,13.908-31.061,31.06-31.061h217.406
									c17.151,0,31.058-13.904,31.058-31.061c0.001-17.151-13.904-31.058-31.059-31.057l-178.585-0.001
									c-17.152,0-31.058-13.904-31.058-31.058c-0.002-17.151,13.903-31.06,31.058-31.061h-6.901
									c17.152,0,31.059-13.901,31.059-31.057c0-17.153-13.903-31.06-31.058-31.06h-12.538c-17.15,0-31.058-13.904-31.058-31.06
									c0-17.15,13.905-31.061,31.059-31.058l-3.854-0.003c17.152,0.003,31.059-13.902,31.061-31.055
									c0-17.153-13.906-31.063-31.063-31.062H991.017c-17.151,0-31.06,13.905-31.058,31.057c0,17.153,13.902,31.06,31.059,31.059
									l15.527,0.002c17.152,0,31.058,13.904,31.059,31.058c0,17.153-13.904,31.061-31.059,31.06H904.74
									c-17.148,0.001-31.058,13.905-31.057,31.06c-0.002,17.152,13.902,31.058,31.059,31.057l4.979,0.001
									c13.52,1.831,18.697,9.858,20.537,14.721c2.44,6.446,2.403,9.188,2.59,14.78c-0.026,0.515-0.039,1.035-0.041,1.559
									c0.002,17.15,13.908,31.06,31.062,31.06L1103.59,369.998z"/>
							</defs>
							<use xlink:href="#SVGID_2_"  overflow="visible" fill="#F9F9F9"/>
							<clipPath id="SVGID_4_">
								<use xlink:href="#SVGID_2_"  overflow="visible"/>
							</clipPath>
							<g clip-path="url(#SVGID_4_)">
								<g>
									<g>
										<rect id="SVGID_3_" x="761.098" y="369.989" fill="#F9F9F9" width="1068.867" height="322.213"/>
									</g>
								</g>
							</g>
						</g>
					</g>
				</g>
				<g>
					<g>
						<g>
							<defs>
								<path id="SVGID_5_" d="M1103.59,369.998c16.564,0.637,22.57,9.751,24.588,15.07c2.549,6.735,2.396,9.412,2.609,15.539
									c0,0.146-0.01,0.293-0.01,0.442c-0.002,17.15,13.905,31.059,31.061,31.057l54.354,0.002
									c17.15,0,31.059,13.904,31.059,31.059c0,17.153-13.905,31.062-31.059,31.062h-178.59
									c-16.403,0.001-29.832,12.726-30.969,28.841l-0.09-0.084c-0.43,8.197,0.166,10.604-2.731,18.263
									c-2.015,5.319-8.021,14.438-24.588,15.068l-65.854,0.027c-17.149,0-31.06,13.903-31.059,31.059
									c-0.001,17.153,13.904,31.06,31.059,31.06l42.85,0.002c16.566,0.633,22.572,9.747,24.588,15.066
									c2.261,5.965,2.396,8.754,2.549,13.563c-0.063,0.801-0.104,1.606-0.104,2.425c0,17.152,13.907,31.06,31.061,31.06
									l574.578,0.001c17.154,0.001,31.059-13.904,31.059-31.06c-0.002-17.151-13.906-31.059-31.059-31.059h-50.496
									c-17.15,0-31.059-13.904-31.059-31.06c0-17.153,13.903-31.061,31.059-31.06l104.85,0.001
									c17.151-0.002,31.06-13.906,31.06-31.063c-0.001-17.148-13.906-31.057-31.06-31.058l-93.177,0.001
									c-17.151-0.001-31.058-13.905-31.06-31.061c0-17.151,13.908-31.061,31.06-31.061h217.406
									c17.151,0,31.058-13.904,31.058-31.061c0.001-17.151-13.904-31.058-31.059-31.057l-178.585-0.001
									c-17.152,0-31.058-13.904-31.058-31.058c-0.002-17.151,13.903-31.06,31.058-31.061h-6.901
									c17.152,0,31.059-13.901,31.059-31.057c0-17.153-13.903-31.06-31.058-31.06h-12.538c-17.15,0-31.058-13.904-31.058-31.06
									c0-17.15,13.905-31.061,31.059-31.058l-3.854-0.003c17.152,0.003,31.059-13.902,31.061-31.055
									c0-17.153-13.906-31.063-31.063-31.062H991.017c-17.151,0-31.06,13.905-31.058,31.057c0,17.153,13.902,31.06,31.059,31.059
									l15.527,0.002c17.152,0,31.058,13.904,31.059,31.058c0,17.153-13.904,31.061-31.059,31.06H904.74
									c-17.148,0.001-31.058,13.905-31.057,31.06c-0.002,17.152,13.902,31.058,31.059,31.057l4.979,0.001
									c13.52,1.831,18.697,9.858,20.537,14.721c2.44,6.446,2.403,9.188,2.59,14.78c-0.026,0.515-0.039,1.035-0.041,1.559
									c0.002,17.15,13.908,31.06,31.062,31.06L1103.59,369.998z"/>
							</defs>
							<use xlink:href="#SVGID_5_"  overflow="visible" fill="#F9F9F9"/>
							<clipPath id="SVGID_6_">
								<use xlink:href="#SVGID_5_"  overflow="visible"/>
							</clipPath>
							<rect x="890.068" y="117.836" clip-path="url(#SVGID_6_)" fill="#F9F9F9" width="772.146" height="128.547"/>
						</g>
					</g>
				</g>
				<g>
					<g>
						<g>
							<defs>
								<path id="SVGID_7_" d="M1103.59,369.998c16.564,0.637,22.57,9.751,24.588,15.07c2.549,6.735,2.396,9.412,2.609,15.539
									c0,0.146-0.01,0.293-0.01,0.442c-0.002,17.15,13.905,31.059,31.061,31.057l54.354,0.002
									c17.15,0,31.059,13.904,31.059,31.059c0,17.153-13.905,31.062-31.059,31.062h-178.59
									c-16.403,0.001-29.832,12.726-30.969,28.841l-0.09-0.084c-0.43,8.197,0.166,10.604-2.731,18.263
									c-2.015,5.319-8.021,14.438-24.588,15.068l-65.854,0.027c-17.149,0-31.06,13.903-31.059,31.059
									c-0.001,17.153,13.904,31.06,31.059,31.06l42.85,0.002c16.566,0.633,22.572,9.747,24.588,15.066
									c2.261,5.965,2.396,8.754,2.549,13.563c-0.063,0.801-0.104,1.606-0.104,2.425c0,17.152,13.907,31.06,31.061,31.06
									l574.578,0.001c17.154,0.001,31.059-13.904,31.059-31.06c-0.002-17.151-13.906-31.059-31.059-31.059h-50.496
									c-17.15,0-31.059-13.904-31.059-31.06c0-17.153,13.903-31.061,31.059-31.06l104.85,0.001
									c17.151-0.002,31.06-13.906,31.06-31.063c-0.001-17.148-13.906-31.057-31.06-31.058l-93.177,0.001
									c-17.151-0.001-31.058-13.905-31.06-31.061c0-17.151,13.908-31.061,31.06-31.061h217.406
									c17.151,0,31.058-13.904,31.058-31.061c0.001-17.151-13.904-31.058-31.059-31.057l-178.585-0.001
									c-17.152,0-31.058-13.904-31.058-31.058c-0.002-17.151,13.903-31.06,31.058-31.061h-6.901
									c17.152,0,31.059-13.901,31.059-31.057c0-17.153-13.903-31.06-31.058-31.06h-12.538c-17.15,0-31.058-13.904-31.058-31.06
									c0-17.15,13.905-31.061,31.059-31.058l-3.854-0.003c17.152,0.003,31.059-13.902,31.061-31.055
									c0-17.153-13.906-31.063-31.063-31.062H991.017c-17.151,0-31.06,13.905-31.058,31.057c0,17.153,13.902,31.06,31.059,31.059
									l15.527,0.002c17.152,0,31.058,13.904,31.059,31.058c0,17.153-13.904,31.061-31.059,31.06H904.74
									c-17.148,0.001-31.058,13.905-31.057,31.06c-0.002,17.152,13.902,31.058,31.059,31.057l4.979,0.001
									c13.52,1.831,18.697,9.858,20.537,14.721c2.44,6.446,2.403,9.188,2.59,14.78c-0.026,0.515-0.039,1.035-0.041,1.559
									c0.002,17.15,13.908,31.06,31.062,31.06L1103.59,369.998z"/>
							</defs>
							<use xlink:href="#SVGID_7_"  overflow="visible" fill="#F9F9F9"/>
							<clipPath id="SVGID_8_">
								<use xlink:href="#SVGID_7_"  overflow="visible"/>
							</clipPath>
							<rect x="862.465" y="245.521" clip-path="url(#SVGID_8_)" fill="#F9F9F9" width="772.143" height="125.097"/>
						</g>
					</g>
				</g>
			</g>
			<path fill="#F9F9F9" d="M728.901,435.651c-0.002-17.151,13.905-31.059,31.06-31.058l274.351-0.001
				c17.149,0,31.058,13.904,31.058,31.058l0,0c0,17.153-13.904,31.06-31.058,31.06l-274.351-0.001
				C742.807,466.708,728.898,452.804,728.901,435.651L728.901,435.651z"/>
			<path fill="#F9F9F9" d="M679.711,335.756c0-17.155,13.903-31.061,31.058-31.06l125.958,0.001
				c17.152-0.002,31.063,13.901,31.059,31.059l0,0c0.004,17.15-13.902,31.06-31.057,31.058l-125.958,0.001
				C693.614,366.812,679.713,352.906,679.711,335.756L679.711,335.756z"/>
			<path fill="#F9F9F9" d="M1095.674,738.746c0.002-17.153,13.904-31.06,31.061-31.06l216.82,0.001
				c17.15-0.001,31.06,13.901,31.06,31.06l0,0c0.002,17.149-13.907,31.062-31.062,31.06h-216.816
				C1109.58,769.805,1095.676,755.9,1095.674,738.746L1095.674,738.746z"/>
			<path fill="#F9F9F9" d="M1078.153,61.254c0-17.154,13.903-31.06,31.058-31.061l216.819,0.001
				c17.151-0.002,31.062,13.902,31.058,31.06l0,0c0.002,17.149-13.903,31.058-31.058,31.057l-216.815,0.003
				C1092.057,92.308,1078.153,78.405,1078.153,61.254L1078.153,61.254z"/>
			<path fill="#F9F9F9" d="M800.237,585.966c0.003-17.833,14.459-32.288,32.291-32.289c17.829,0,32.285,14.456,32.284,32.283
				c-0.001,17.833-14.456,32.289-32.289,32.29C814.696,618.251,800.24,603.795,800.237,585.966z"/>
			<path fill="#F9F9F9" d="M648.387,437.033c0.002-17.834,14.458-32.29,32.291-32.291c17.83,0.001,32.285,14.457,32.283,32.286
				c0,17.833-14.455,32.287-32.289,32.288C662.844,469.319,648.389,454.864,648.387,437.033z"/>
			<path fill="#F9F9F9" d="M1378.444,63.243c0.002-17.832,14.457-32.288,32.289-32.289c17.829,0.001,32.285,14.457,32.285,32.284
				c-0.001,17.833-14.456,32.289-32.287,32.29C1392.899,95.529,1378.444,81.073,1378.444,63.243z"/>
		</g>
	</g>
</g>
</svg>
