<?xml version="1.0" encoding="iso-8859-1"?>
<!-- Generator: Adobe Illustrator 19.0.0, SVG Export Plug-In . SVG Version: 6.00 Build 0)  -->
<svg version="1.1" id="Layer_1" xmlns="http://www.w3.org/2000/svg" xmlns:xlink="http://www.w3.org/1999/xlink" x="0px" y="0px"
	 viewBox="0 0 512 512" style="enable-background:new 0 0 512 512;" xml:space="preserve">
<circle style="fill:#324A5E;" cx="256" cy="256" r="256"/>
<path style="fill:#2B3B4E;" d="M507.449,304.2L310.132,106.882c1.031,0-69.203,148.754-95.187,203.716l-94.27,66.938L255.129,511.99
	c0.291,0,0.581,0.01,0.872,0.01C380.906,512,484.9,422.538,507.449,304.2z"/>
<polygon style="fill:#FD8469;" points="120.675,309.872 120.675,129.436 201.871,174.545 310.132,106.882 391.328,197.099 
	391.328,332.426 "/>
<polygon style="fill:#FC6F58;" points="391.328,197.099 310.132,106.882 256.002,140.714 256.002,321.15 391.328,332.426 "/>
<polygon style="fill:#F9B54C;" points="120.675,354.982 120.675,197.099 174.806,242.209 256.002,174.545 310.132,242.209 
	310.132,354.982 147.74,354.982 "/>
<polygon style="fill:#F4A200;" points="310.132,242.209 256.002,174.547 256.002,354.982 310.132,354.982 "/>
<polygon style="fill:#84DBFF;" points="120.675,309.872 174.806,264.763 228.936,309.872 337.198,219.655 391.328,287.318 
	391.328,377.535 120.675,377.535 "/>
<polygon style="fill:#31BAFD;" points="391.328,287.318 337.198,219.655 256.002,287.316 256.002,377.535 391.328,377.535 "/>
<g>
</g>
<g>
</g>
<g>
</g>
<g>
</g>
<g>
</g>
<g>
</g>
<g>
</g>
<g>
</g>
<g>
</g>
<g>
</g>
<g>
</g>
<g>
</g>
<g>
</g>
<g>
</g>
<g>
</g>
</svg>
