<?xml version="1.0" encoding="iso-8859-1"?>
<!-- Generator: Adobe Illustrator 19.0.0, SVG Export Plug-In . SVG Version: 6.00 Build 0)  -->
<svg version="1.1" id="Layer_1" xmlns="http://www.w3.org/2000/svg" xmlns:xlink="http://www.w3.org/1999/xlink" x="0px" y="0px"
	 viewBox="0 0 512 512" style="enable-background:new 0 0 512 512;" xml:space="preserve">
<circle style="fill:#31BAFD;" cx="256" cy="256" r="256"/>
<path style="fill:#2B9ED8;" d="M509.776,289.797L305.05,85.071L252.768,327.47l-6.461,12.359l-55.384-55.384l-9.394,58.558
	l-39.307,55.22L256,512l0,0C385.926,512,493.234,415.206,509.776,289.797z"/>
<path style="fill:#FFC61B;" d="M328.802,138.84c0-41.179-34.187-74.371-75.728-72.744c-37.219,1.458-67.703,31.415-69.761,68.605
	c-1.414,25.545,10.352,48.416,29.115,62.452c11.978,8.959,19.306,22.809,19.306,37.766v25.259c0,13.402,10.864,24.267,24.267,24.267
	l0,0c13.402,0,24.267-10.864,24.267-24.267v-24.854c0-15.16,7.404-29.201,19.511-38.326
	C317.404,183.715,328.802,162.613,328.802,138.84z"/>
<path style="fill:#EAA22F;" d="M255.319,66.067V284.41c0.228,0.007,0.45,0.034,0.681,0.034c13.402,0,24.267-10.866,24.267-24.267
	v-24.854c0-15.16,7.404-29.201,19.511-38.324c17.627-13.283,29.024-34.385,29.024-58.158
	C328.802,98.409,295.836,65.698,255.319,66.067z"/>
<path style="fill:#B97850;" d="M231.733,235.91v24.267c0,13.402,10.864,24.267,24.267,24.267l0,0
	c13.402,0,24.267-10.864,24.267-24.267v-24.269L231.733,235.91z"/>
<path style="fill:#804000;" d="M255.426,235.91v48.507c0.193,0.005,0.381,0.029,0.574,0.029l0,0
	c13.402,0,24.267-10.864,24.267-24.267V235.91H255.426z"/>
<path style="fill:#FF5419;" d="M242.023,183.698c-1.355,0-2.722-0.414-3.899-1.276c-2.951-2.157-3.594-6.297-1.438-9.249
	l20.252-27.715h-14.91c-2.493,0-4.773-1.4-5.901-3.622c-1.127-2.222-0.912-4.889,0.559-6.901l27.945-38.24
	c2.155-2.951,6.296-3.6,9.249-1.438c2.951,2.157,3.594,6.297,1.438,9.249l-20.252,27.715h14.91c2.493,0,4.773,1.4,5.901,3.622
	c1.127,2.222,0.912,4.889-0.559,6.901l-27.944,38.24C246.075,182.76,244.064,183.698,242.023,183.698z"/>
<g>
	<path style="fill:#C92F00;" d="M275.315,104.507c2.157-2.951,1.514-7.092-1.438-9.249c-2.953-2.162-7.094-1.514-9.249,1.438
		l-9.309,12.74v22.435L275.315,104.507z"/>
	<path style="fill:#C92F00;" d="M269.972,132.222h-14.651v13.236h1.619l-1.619,2.215v22.435l19.996-27.362
		c1.47-2.012,1.686-4.679,0.559-6.901C274.744,133.623,272.463,132.222,269.972,132.222z"/>
</g>
<rect x="142.222" y="341.333" style="fill:#D0D1D3;" width="227.556" height="56.889"/>
<rect x="255.431" y="341.333" style="fill:#A6A8AA;" width="114.347" height="56.889"/>
<rect x="170.667" y="312.889" style="fill:#FFFFFF;" width="170.667" height="28.444"/>
<rect x="255.431" y="312.889" style="fill:#D0D1D3;" width="85.907" height="28.444"/>
<rect x="227.556" y="256" style="fill:#324A5E;" width="56.889" height="56.889"/>
<rect x="255.431" y="256" style="fill:#2B3B4E;" width="29.018" height="56.889"/>
<rect x="178.855" y="284.444" style="fill:#57442F;" width="12.067" height="28.444"/>
<rect x="312.889" y="284.444" style="fill:#A82116;" width="12.067" height="28.444"/>
<g>
</g>
<g>
</g>
<g>
</g>
<g>
</g>
<g>
</g>
<g>
</g>
<g>
</g>
<g>
</g>
<g>
</g>
<g>
</g>
<g>
</g>
<g>
</g>
<g>
</g>
<g>
</g>
<g>
</g>
</svg>
