<?xml version="1.0" encoding="utf-8"?>
<!-- Generator: Adobe Illustrator 16.0.0, SVG Export Plug-In . SVG Version: 6.00 Build 0)  -->
<!DOCTYPE svg PUBLIC "-//W3C//DTD SVG 1.1//EN" "http://www.w3.org/Graphics/SVG/1.1/DTD/svg11.dtd">
<svg version="1.1" id="Layer_1" xmlns="http://www.w3.org/2000/svg" xmlns:xlink="http://www.w3.org/1999/xlink" x="0px" y="0px"
	 width="512px" height="512px" viewBox="0 0 512 512" enable-background="new 0 0 512 512" xml:space="preserve">
<circle fill="#F9B54C" cx="256" cy="256" r="256"/>
<path fill="#F4A200" d="M512,256c0-3.977-0.104-7.93-0.283-11.862l-97.995-98.225L188.931,306.55l-90.596,36.076l169.918,169.076
	C403.947,505.306,512,393.275,512,256z"/>
<path fill="#F1543F" d="M404.858,142.222H224.321c-6.941,0-12.568,5.627-12.568,12.569v98.266c0,6.942,5.627,12.569,12.568,12.569
	h118.938l33.031,33.032v-33.032h28.567c6.942,0,12.569-5.627,12.569-12.569v-98.266C417.427,147.849,411.8,142.222,404.858,142.222z
	"/>
<path fill="#D83E20" d="M404.858,142.222h-90.819v123.404h29.221l33.032,33.032v-33.032h28.566c6.942,0,12.569-5.627,12.569-12.569
	v-98.266C417.427,147.849,411.8,142.222,404.858,142.222z"/>
<path fill="#F4E3C3" d="M107.308,222.96h180.536c6.942,0,12.568,5.627,12.568,12.569v98.268c0,6.939-5.626,12.569-12.568,12.569
	H168.907l-33.032,33.032v-33.032h-28.567c-6.941,0-12.569-5.628-12.569-12.569v-98.268
	C94.741,228.586,100.368,222.96,107.308,222.96z"/>
<path fill="#FED8B2" d="M287.846,222.96h-96.778v123.404h96.778c6.942,0,12.568-5.628,12.568-12.569v-98.268
	C300.412,228.586,294.786,222.96,287.846,222.96z"/>
</svg>
