<?xml version="1.0" encoding="iso-8859-1"?>
<!-- Generator: Adobe Illustrator 19.0.0, SVG Export Plug-In . SVG Version: 6.00 Build 0)  -->
<svg version="1.1" id="Layer_1" xmlns="http://www.w3.org/2000/svg" xmlns:xlink="http://www.w3.org/1999/xlink" x="0px" y="0px"
	 viewBox="0 0 512 512" style="enable-background:new 0 0 512 512;" xml:space="preserve">
<circle style="fill:#31BAFD;" cx="256" cy="256" r="256"/>
<path style="fill:#2B9ED8;" d="M504.151,319.117l-84.133-83.977l-13.667,13.758l-100.481-99.475L137.738,257.836l-0.112-0.112
	l-45.07,19.718l225.64,226.933C409.302,481.635,481.082,410.093,504.151,319.117z"/>
<path style="fill:#FFFFFF;" d="M288.611,284.444H109.613c-13.409,0-24.278-10.869-24.278-24.278V166.5
	c0-13.409,10.869-24.278,24.278-24.278h179c13.409,0,24.278,10.869,24.278,24.278v93.667
	C312.891,273.575,302.02,284.444,288.611,284.444z"/>
<path style="fill:#E6F3FF;" d="M288.611,142.222h-88.35v142.222h88.35c13.409,0,24.278-10.869,24.278-24.278V166.5
	C312.891,153.091,302.02,142.222,288.611,142.222z"/>
<path style="fill:#FFD15D;" d="M402.389,369.778H223.391c-13.409,0-24.278-10.869-24.278-24.278v-93.667
	c0-13.409,10.869-24.278,24.278-24.278h179c13.409,0,24.278,10.869,24.278,24.278V345.5
	C426.668,358.909,415.797,369.778,402.389,369.778z"/>
<path style="fill:#F9B54C;" d="M402.389,227.556h-94.384v142.222h94.384c13.409,0,24.278-10.869,24.278-24.278v-93.667
	C426.668,238.425,415.797,227.556,402.389,227.556z"/>
<rect x="199.111" y="266.343" style="fill:#324A5E;" width="227.556" height="36.202"/>
<rect x="308.01" y="266.343" style="fill:#2B3B4E;" width="118.662" height="36.202"/>
<circle style="fill:#FFD15D;" cx="128" cy="184.889" r="14.222"/>
<circle style="fill:#FD8469;" cx="156.444" cy="184.889" r="14.222"/>
<g>
</g>
<g>
</g>
<g>
</g>
<g>
</g>
<g>
</g>
<g>
</g>
<g>
</g>
<g>
</g>
<g>
</g>
<g>
</g>
<g>
</g>
<g>
</g>
<g>
</g>
<g>
</g>
<g>
</g>
</svg>
