<?xml version="1.0" encoding="utf-8"?>
<!-- Generator: Adobe Illustrator 16.0.0, SVG Export Plug-In . SVG Version: 6.00 Build 0)  -->
<!DOCTYPE svg PUBLIC "-//W3C//DTD SVG 1.1//EN" "http://www.w3.org/Graphics/SVG/1.1/DTD/svg11.dtd">
<svg version="1.1" id="Calque_1" xmlns="http://www.w3.org/2000/svg" xmlns:xlink="http://www.w3.org/1999/xlink" x="0px" y="0px"
	 width="512px" height="512px" viewBox="0 0 512 512" enable-background="new 0 0 512 512" xml:space="preserve">
<path fill="#FF7855" d="M512,256c0,141.387-114.613,256-256,256S0,397.387,0,256S114.614,0,256,0S512,114.613,512,256z"/>
<g>
	<defs>
		<path id="SVGID_1_" d="M512,256c0,141.387-114.613,256-256,256S0,397.387,0,256S114.614,0,256,0S512,114.613,512,256z"/>
	</defs>
	<clipPath id="SVGID_2_">
		<use xlink:href="#SVGID_1_"  overflow="visible"/>
	</clipPath>
	<path clip-path="url(#SVGID_2_)" fill="#FF562B" d="M608.514,383.542l-224.97,224.971l-224.97-224.971l224.97-224.97
		L608.514,383.542z"/>
</g>
<g>
	<path fill="#446080" d="M157.892,128.457l-29.436,29.435l98.11,98.11l-98.11,98.107l29.436,29.434l98.107-98.109l13.877-29.432
		l-13.877-29.436L157.892,128.457z"/>
	<path fill="#324860" d="M383.544,157.892l-29.436-29.435l-98.109,98.11v58.867l98.109,98.109l29.436-29.434l-98.11-98.107
		L383.544,157.892z"/>
</g>
</svg>
