<?xml version="1.0" encoding="iso-8859-1"?>
<!-- Generator: Adobe Illustrator 19.0.0, SVG Export Plug-In . SVG Version: 6.00 Build 0)  -->
<svg version="1.1" id="Layer_1" xmlns="http://www.w3.org/2000/svg" xmlns:xlink="http://www.w3.org/1999/xlink" x="0px" y="0px"
	 viewBox="0 0 512 512" style="enable-background:new 0 0 512 512;" xml:space="preserve">
<circle style="fill:#B5F1F4;" cx="256" cy="256" r="256"/>
<path style="fill:#84DBFF;" d="M496.328,344.385L271.694,119.753c0-0.914-59.938,58.768-89.138,87.897
	c-28.996,6.454-98.283,21.856-98.283,21.67l265.109,265.109C417.309,467.802,471.088,412.993,496.328,344.385z"/>
<rect x="84.273" y="119.76" style="fill:#FD8469;" width="93.003" height="109.33"/>
<rect x="177.269" y="119.76" style="fill:#FC6F58;" width="94.418" height="109.33"/>
<polygon style="fill:#324A5E;" points="271.694,119.753 177.983,174.416 84.273,119.753 "/>
<polygon style="fill:#2B3B4E;" points="271.694,119.753 177.276,119.753 177.276,174.004 177.983,174.416 "/>
<polygon style="fill:#FC6F58;" points="84.273,229.317 177.983,174.654 271.694,229.317 "/>
<polygon style="fill:#F1543F;" points="177.983,174.654 177.276,175.066 177.276,229.317 271.694,229.317 "/>
<rect x="233.417" y="268.895" style="fill:#FD8469;" width="93.263" height="109.33"/>
<rect x="326.68" y="268.895" style="fill:#FC6F58;" width="94.151" height="109.33"/>
<polygon style="fill:#C1321F;" points="420.833,268.891 327.121,323.555 233.412,268.891 "/>
<polygon style="fill:#A82116;" points="420.833,268.891 326.682,268.891 326.682,323.298 327.121,323.555 "/>
<polygon style="fill:#F1543F;" points="233.412,378.456 327.121,323.793 420.833,378.456 "/>
<polygon style="fill:#D83E20;" points="327.121,323.791 326.682,324.049 326.682,378.456 420.833,378.456 "/>
<g>
</g>
<g>
</g>
<g>
</g>
<g>
</g>
<g>
</g>
<g>
</g>
<g>
</g>
<g>
</g>
<g>
</g>
<g>
</g>
<g>
</g>
<g>
</g>
<g>
</g>
<g>
</g>
<g>
</g>
</svg>
