<?xml version="1.0" encoding="iso-8859-1"?>
<!-- Generator: Adobe Illustrator 19.0.0, SVG Export Plug-In . SVG Version: 6.00 Build 0)  -->
<svg version="1.1" id="Layer_1" xmlns="http://www.w3.org/2000/svg" xmlns:xlink="http://www.w3.org/1999/xlink" x="0px" y="0px"
	 viewBox="0 0 512 512" style="enable-background:new 0 0 512 512;" xml:space="preserve">
<circle style="fill:#F4E3C3;" cx="256" cy="256" r="256"/>
<path style="fill:#FED8B2;" d="M155.551,356.666l150.435,150.442c101.286-20.049,181.072-99.838,201.123-201.123L358.86,157.737
	c0,0.783-25.007,38.424-52.307,79.284L178.997,109.04c-0.576-0.574-44.532,19.678-44.532,19.678l146.52,146.52
	c-13.9,20.751-26.467,39.481-34.456,51.379C212.625,333.6,155.122,356.666,155.551,356.666z"/>
<circle style="fill:#31BAFD;" cx="256" cy="256" r="142.222"/>
<path style="fill:#2B9ED8;" d="M256,113.778c-0.193,0-0.381,0.014-0.574,0.014v284.415c0.193,0,0.381,0.014,0.574,0.014
	c78.546,0,142.222-63.676,142.222-142.222S334.546,113.778,256,113.778z"/>
<g>
	<path style="fill:#66B31B;" d="M200.835,347.367c0-6.896,3.448-17.239-1.724-18.963c-32.754-3.448-51.717-29.306-53.441-58.613
		c0-10.343,12.067-15.515,20.687-15.515c18.963-3.448,43.098,0,49.993-17.239c5.172-17.239-18.963-31.03-6.896-49.993
		c5.172-8.62,17.239-10.343,20.687-17.239c7.839-18.815-11.411-33.351-22.742-47.499c-54.613,19.858-93.622,72.218-93.622,133.694
		c0,49.316,25.109,92.758,63.231,118.27c0.969-2.646,2.005-5.294,3.139-7.94C183.596,359.434,199.111,359.434,200.835,347.367z"/>
	<path style="fill:#66B31B;" d="M262.896,154.29c-6.896,15.515-15.515,43.098,6.896,48.269c27.582,6.896,49.993,5.172,75.852,22.411
		c12.067,10.343,27.582,3.448,41.374-5.172c2.086-1.043,4.174-1.288,6.26-0.991c-12.078-44.682-45.356-80.656-88.402-96.408
		C289.759,131.693,270.419,137.738,262.896,154.29z"/>
	<path style="fill:#66B31B;" d="M398.222,256c0-2.989-0.103-5.953-0.288-8.895c-23.662,12.05-55.134,2.253-81.598,3.724
		c-24.135,1.724-22.411,29.306-8.62,46.545c10.343,12.067,34.478,13.791,39.65,24.135c5.937,10.885,5.061,24.61,5.518,38.569
		C380.764,334.112,398.222,297.103,398.222,256z"/>
</g>
<g>
	<path style="fill:#324A5E;" d="M156.444,99.699c-17.613,0-31.892,14.279-31.892,31.892c0,33.18,31.892,53.153,31.892,53.153
		s31.892-19.973,31.892-53.153C188.337,113.978,174.058,99.699,156.444,99.699z M156.444,143.189
		c-6.404,0-11.597-5.192-11.597-11.597c0-6.404,5.192-11.597,11.597-11.597c6.404,0,11.597,5.192,11.597,11.597
		S162.849,143.189,156.444,143.189z"/>
	<path style="fill:#324A5E;" d="M184.889,281.859c-12.853,0-23.273,10.419-23.273,23.273c0,24.212,23.273,38.788,23.273,38.788
		s23.273-14.576,23.273-38.788C208.162,292.278,197.742,281.859,184.889,281.859z M184.889,313.594
		c-4.674,0-8.463-3.789-8.463-8.463c0-4.674,3.789-8.463,8.463-8.463s8.463,3.789,8.463,8.463
		C193.352,309.805,189.562,313.594,184.889,313.594z"/>
	<path style="fill:#324A5E;" d="M346.505,227.556c-12.853,0-23.273,10.419-23.273,23.273c0,24.212,23.273,38.788,23.273,38.788
		s23.273-14.576,23.273-38.788C369.778,237.975,359.358,227.556,346.505,227.556z M346.505,259.291
		c-4.673,0-8.463-3.789-8.463-8.463s3.789-8.463,8.463-8.463c4.674,0,8.463,3.789,8.463,8.463S351.179,259.291,346.505,259.291z"/>
</g>
<g>
</g>
<g>
</g>
<g>
</g>
<g>
</g>
<g>
</g>
<g>
</g>
<g>
</g>
<g>
</g>
<g>
</g>
<g>
</g>
<g>
</g>
<g>
</g>
<g>
</g>
<g>
</g>
<g>
</g>
</svg>
