<?xml version="1.0" encoding="iso-8859-1"?>
<!-- Generator: Adobe Illustrator 19.0.0, SVG Export Plug-In . SVG Version: 6.00 Build 0)  -->
<svg version="1.1" id="Layer_1" xmlns="http://www.w3.org/2000/svg" xmlns:xlink="http://www.w3.org/1999/xlink" x="0px" y="0px"
	 viewBox="0 0 512 512" style="enable-background:new 0 0 512 512;" xml:space="preserve">
<circle style="fill:#324A5E;" cx="256" cy="256" r="256"/>
<path style="fill:#2B3B4E;" d="M510.581,283.024L369.78,142.222l-69.961,29.306v109.377l-81.796-81.794l-68.832,34.047v179.933
	l98.771,98.771c2.67,0.083,5.348,0.138,8.039,0.138C388.256,512,497.08,411.705,510.581,283.024z"/>
<rect x="358.986" y="257.948" style="fill:#E6F3FF;" width="74.559" height="49.705"/>
<rect x="357.745" y="257.948" style="fill:#FD8469;" width="12.426" height="111.835"/>
<rect x="295.219" y="142.222" style="fill:#E6F3FF;" width="74.559" height="49.705"/>
<rect x="293.978" y="142.222" style="fill:#FD8469;" width="12.426" height="111.835"/>
<rect x="143.463" y="199.111" style="fill:#E6F3FF;" width="74.559" height="49.705"/>
<rect x="142.222" y="199.111" style="fill:#FD8469;" width="12.426" height="111.835"/>
<polygon style="fill:#31BAFD;" points="184.506,469.414 351.329,469.414 351.329,207.265 184.506,278.761 "/>
<polygon style="fill:#2B9ED8;" points="351.329,207.265 256.288,247.996 256.288,469.414 351.329,469.414 "/>
<path style="fill:#FC6F58;" d="M136.842,482.614C172.435,501.369,212.973,512,256,512c16.291,0,32.22-1.539,47.664-4.448V350.256
	l-166.822-71.496L136.842,482.614L136.842,482.614z"/>
<path style="fill:#F1543F;" d="M303.664,350.256l-47.376-20.304v182.044c16.189-0.017,32.022-1.553,47.376-4.444V350.256z"/>
<path style="fill:#B5F1F4;" d="M208.337,507.552C223.782,510.461,239.711,512,256,512c43.029,0,83.566-10.631,119.16-29.386V350.256
	l-166.822,71.496L208.337,507.552L208.337,507.552z"/>
<path style="fill:#84DBFF;" d="M375.16,350.256l-118.872,50.945v110.795c42.92-0.048,83.358-10.669,118.872-29.382V350.256z"/>
<g>
</g>
<g>
</g>
<g>
</g>
<g>
</g>
<g>
</g>
<g>
</g>
<g>
</g>
<g>
</g>
<g>
</g>
<g>
</g>
<g>
</g>
<g>
</g>
<g>
</g>
<g>
</g>
<g>
</g>
</svg>
