<?xml version="1.0" encoding="utf-8"?>
<!-- Generator: Adobe Illustrator 16.0.0, SVG Export Plug-In . SVG Version: 6.00 Build 0)  -->
<!DOCTYPE svg PUBLIC "-//W3C//DTD SVG 1.1//EN" "http://www.w3.org/Graphics/SVG/1.1/DTD/svg11.dtd">
<svg version="1.1" id="Calque_1" xmlns="http://www.w3.org/2000/svg" xmlns:xlink="http://www.w3.org/1999/xlink" x="0px" y="0px"
	 width="1280px" height="800px" viewBox="0 0 1280 800" enable-background="new 0 0 1280 800" xml:space="preserve">
<path fill="#3793D1" d="M0,0h1280v800H0V0z"/>
<g>
	<g>
		<g>
			<g>
				<g>
					<path id="SVGID_1_" fill="#FFFFFF" d="M169.183,437.256c-16.564-0.636-22.57-9.751-24.587-15.07
						c-2.549-6.735-2.396-9.412-2.61-15.539c0-0.146,0.01-0.293,0.01-0.442c0.002-17.151-13.905-31.059-31.061-31.057l-54.353-0.002
						c-17.15,0-31.059-13.904-31.059-31.059c0-17.153,13.906-31.061,31.059-31.061h178.59c16.403-0.001,29.832-12.726,30.968-28.841
						l0.091,0.084c0.429-8.197-0.166-10.604,2.731-18.263c2.015-5.319,8.021-14.438,24.588-15.068l65.854-0.028
						c17.15,0,31.06-13.903,31.059-31.058c0.001-17.154-13.905-31.06-31.059-31.06l-42.849-0.002
						c-16.567-0.633-22.573-9.747-24.588-15.066c-2.261-5.965-2.396-8.754-2.549-13.564c0.062-0.8,0.104-1.606,0.104-2.424
						c0-17.153-13.908-31.06-31.061-31.06l-574.578-0.001c-17.154-0.001-31.059,13.904-31.059,31.06
						c0.002,17.151,13.906,31.058,31.059,31.058h50.496c17.15,0,31.059,13.904,31.059,31.06c0,17.153-13.904,31.06-31.059,31.059
						l-104.85-0.001c-17.151,0.002-31.059,13.907-31.059,31.063c0.001,17.149,13.906,31.057,31.059,31.058l93.177-0.001
						c17.151,0.001,31.058,13.905,31.059,31.06c0,17.152-13.907,31.061-31.059,31.061H-494.7c-17.151,0-31.058,13.904-31.058,31.06
						c-0.001,17.152,13.904,31.058,31.059,31.057l178.585,0.001c17.152,0,31.058,13.904,31.058,31.058
						c0.002,17.151-13.904,31.059-31.058,31.06h6.901c-17.152,0-31.059,13.902-31.059,31.057c0,17.153,13.904,31.059,31.058,31.059
						h12.538c17.15,0,31.058,13.905,31.058,31.06c0,17.15-13.905,31.06-31.059,31.058l3.854,0.002
						c-17.151-0.002-31.058,13.903-31.06,31.055c0,17.153,13.906,31.063,31.062,31.062h574.578c17.151,0,31.06-13.906,31.058-31.057
						c0-17.153-13.903-31.06-31.059-31.059l-15.527-0.002c-17.153,0-31.058-13.904-31.059-31.057
						c0-17.153,13.904-31.061,31.059-31.06h101.804c17.149-0.001,31.058-13.905,31.057-31.059
						c0.002-17.153-13.903-31.058-31.059-31.057l-4.979-0.001c-13.519-1.831-18.697-9.858-20.537-14.721
						c-2.44-6.446-2.403-9.187-2.589-14.78c0.026-0.514,0.039-1.035,0.04-1.558c-0.001-17.151-13.907-31.06-31.061-31.06
						L169.183,437.256z"/>
				</g>
				<g>
					<g>
						<defs>
							<path id="SVGID_2_" d="M169.183,437.256c-16.564-0.636-22.57-9.751-24.587-15.07c-2.549-6.735-2.396-9.412-2.61-15.539
								c0-0.146,0.01-0.293,0.01-0.442c0.002-17.151-13.905-31.059-31.061-31.057l-54.353-0.002
								c-17.15,0-31.059-13.904-31.059-31.059c0-17.153,13.906-31.061,31.059-31.061h178.59
								c16.403-0.001,29.832-12.726,30.968-28.841l0.091,0.084c0.429-8.197-0.166-10.604,2.731-18.263
								c2.015-5.319,8.021-14.438,24.588-15.068l65.854-0.028c17.15,0,31.06-13.903,31.059-31.058
								c0.001-17.154-13.905-31.06-31.059-31.06l-42.849-0.002c-16.567-0.633-22.573-9.747-24.588-15.066
								c-2.261-5.965-2.396-8.754-2.549-13.564c0.062-0.8,0.104-1.606,0.104-2.424c0-17.153-13.908-31.06-31.061-31.06
								l-574.578-0.001c-17.154-0.001-31.059,13.904-31.059,31.06c0.002,17.151,13.906,31.058,31.059,31.058h50.496
								c17.15,0,31.059,13.904,31.059,31.06c0,17.153-13.904,31.06-31.059,31.059l-104.85-0.001
								c-17.151,0.002-31.059,13.907-31.059,31.063c0.001,17.149,13.906,31.057,31.059,31.058l93.177-0.001
								c17.151,0.001,31.058,13.905,31.059,31.06c0,17.152-13.907,31.061-31.059,31.061H-494.7
								c-17.151,0-31.058,13.904-31.058,31.06c-0.001,17.152,13.904,31.058,31.059,31.057l178.585,0.001
								c17.152,0,31.058,13.904,31.058,31.058c0.002,17.151-13.904,31.059-31.058,31.06h6.901
								c-17.152,0-31.059,13.902-31.059,31.057c0,17.153,13.904,31.059,31.058,31.059h12.538c17.15,0,31.058,13.905,31.058,31.06
								c0,17.15-13.905,31.06-31.059,31.058l3.854,0.002c-17.151-0.002-31.058,13.903-31.06,31.055
								c0,17.153,13.906,31.063,31.062,31.062h574.578c17.151,0,31.06-13.906,31.058-31.057c0-17.153-13.903-31.06-31.059-31.059
								l-15.527-0.002c-17.153,0-31.058-13.904-31.059-31.057c0-17.153,13.904-31.061,31.059-31.06h101.804
								c17.149-0.001,31.058-13.905,31.057-31.059c0.002-17.153-13.903-31.058-31.059-31.057l-4.979-0.001
								c-13.519-1.831-18.697-9.858-20.537-14.721c-2.44-6.446-2.403-9.187-2.589-14.78c0.026-0.514,0.039-1.035,0.04-1.558
								c-0.001-17.151-13.907-31.06-31.061-31.06L169.183,437.256z"/>
						</defs>
						<clipPath id="SVGID_4_">
							<use xlink:href="#SVGID_2_"  overflow="visible"/>
						</clipPath>
						<g clip-path="url(#SVGID_4_)">
							<g>
								<g>
									<rect id="SVGID_3_" x="-557.191" y="115.053" fill="#FFFFFF" width="1068.867" height="322.213"/>
								</g>
							</g>
						</g>
					</g>
				</g>
				<g>
					<g>
						<defs>
							<path id="SVGID_5_" d="M169.183,437.256c-16.564-0.636-22.57-9.751-24.587-15.07c-2.549-6.735-2.396-9.412-2.61-15.539
								c0-0.146,0.01-0.293,0.01-0.442c0.002-17.151-13.905-31.059-31.061-31.057l-54.353-0.002
								c-17.15,0-31.059-13.904-31.059-31.059c0-17.153,13.906-31.061,31.059-31.061h178.59
								c16.403-0.001,29.832-12.726,30.968-28.841l0.091,0.084c0.429-8.197-0.166-10.604,2.731-18.263
								c2.015-5.319,8.021-14.438,24.588-15.068l65.854-0.028c17.15,0,31.06-13.903,31.059-31.058
								c0.001-17.154-13.905-31.06-31.059-31.06l-42.849-0.002c-16.567-0.633-22.573-9.747-24.588-15.066
								c-2.261-5.965-2.396-8.754-2.549-13.564c0.062-0.8,0.104-1.606,0.104-2.424c0-17.153-13.908-31.06-31.061-31.06
								l-574.578-0.001c-17.154-0.001-31.059,13.904-31.059,31.06c0.002,17.151,13.906,31.058,31.059,31.058h50.496
								c17.15,0,31.059,13.904,31.059,31.06c0,17.153-13.904,31.06-31.059,31.059l-104.85-0.001
								c-17.151,0.002-31.059,13.907-31.059,31.063c0.001,17.149,13.906,31.057,31.059,31.058l93.177-0.001
								c17.151,0.001,31.058,13.905,31.059,31.06c0,17.152-13.907,31.061-31.059,31.061H-494.7
								c-17.151,0-31.058,13.904-31.058,31.06c-0.001,17.152,13.904,31.058,31.059,31.057l178.585,0.001
								c17.152,0,31.058,13.904,31.058,31.058c0.002,17.151-13.904,31.059-31.058,31.06h6.901
								c-17.152,0-31.059,13.902-31.059,31.057c0,17.153,13.904,31.059,31.058,31.059h12.538c17.15,0,31.058,13.905,31.058,31.06
								c0,17.15-13.905,31.06-31.059,31.058l3.854,0.002c-17.151-0.002-31.058,13.903-31.06,31.055
								c0,17.153,13.906,31.063,31.062,31.062h574.578c17.151,0,31.06-13.906,31.058-31.057c0-17.153-13.903-31.06-31.059-31.059
								l-15.527-0.002c-17.153,0-31.058-13.904-31.059-31.057c0-17.153,13.904-31.061,31.059-31.06h101.804
								c17.149-0.001,31.058-13.905,31.057-31.059c0.002-17.153-13.903-31.058-31.059-31.057l-4.979-0.001
								c-13.519-1.831-18.697-9.858-20.537-14.721c-2.44-6.446-2.403-9.187-2.589-14.78c0.026-0.514,0.039-1.035,0.04-1.558
								c-0.001-17.151-13.907-31.06-31.061-31.06L169.183,437.256z"/>
						</defs>
						<clipPath id="SVGID_6_">
							<use xlink:href="#SVGID_5_"  overflow="visible"/>
						</clipPath>
						<rect x="-389.441" y="560.872" clip-path="url(#SVGID_6_)" fill="#FFFFFF" width="772.146" height="128.546"/>
					</g>
				</g>
				<g>
					<g>
						<defs>
							<path id="SVGID_7_" d="M169.183,437.256c-16.564-0.636-22.57-9.751-24.587-15.07c-2.549-6.735-2.396-9.412-2.61-15.539
								c0-0.146,0.01-0.293,0.01-0.442c0.002-17.151-13.905-31.059-31.061-31.057l-54.353-0.002
								c-17.15,0-31.059-13.904-31.059-31.059c0-17.153,13.906-31.061,31.059-31.061h178.59
								c16.403-0.001,29.832-12.726,30.968-28.841l0.091,0.084c0.429-8.197-0.166-10.604,2.731-18.263
								c2.015-5.319,8.021-14.438,24.588-15.068l65.854-0.028c17.15,0,31.06-13.903,31.059-31.058
								c0.001-17.154-13.905-31.06-31.059-31.06l-42.849-0.002c-16.567-0.633-22.573-9.747-24.588-15.066
								c-2.261-5.965-2.396-8.754-2.549-13.564c0.062-0.8,0.104-1.606,0.104-2.424c0-17.153-13.908-31.06-31.061-31.06
								l-574.578-0.001c-17.154-0.001-31.059,13.904-31.059,31.06c0.002,17.151,13.906,31.058,31.059,31.058h50.496
								c17.15,0,31.059,13.904,31.059,31.06c0,17.153-13.904,31.06-31.059,31.059l-104.85-0.001
								c-17.151,0.002-31.059,13.907-31.059,31.063c0.001,17.149,13.906,31.057,31.059,31.058l93.177-0.001
								c17.151,0.001,31.058,13.905,31.059,31.06c0,17.152-13.907,31.061-31.059,31.061H-494.7
								c-17.151,0-31.058,13.904-31.058,31.06c-0.001,17.152,13.904,31.058,31.059,31.057l178.585,0.001
								c17.152,0,31.058,13.904,31.058,31.058c0.002,17.151-13.904,31.059-31.058,31.06h6.901
								c-17.152,0-31.059,13.902-31.059,31.057c0,17.153,13.904,31.059,31.058,31.059h12.538c17.15,0,31.058,13.905,31.058,31.06
								c0,17.15-13.905,31.06-31.059,31.058l3.854,0.002c-17.151-0.002-31.058,13.903-31.06,31.055
								c0,17.153,13.906,31.063,31.062,31.062h574.578c17.151,0,31.06-13.906,31.058-31.057c0-17.153-13.903-31.06-31.059-31.059
								l-15.527-0.002c-17.153,0-31.058-13.904-31.059-31.057c0-17.153,13.904-31.061,31.059-31.06h101.804
								c17.149-0.001,31.058-13.905,31.057-31.059c0.002-17.153-13.903-31.058-31.059-31.057l-4.979-0.001
								c-13.519-1.831-18.697-9.858-20.537-14.721c-2.44-6.446-2.403-9.187-2.589-14.78c0.026-0.514,0.039-1.035,0.04-1.558
								c-0.001-17.151-13.907-31.06-31.061-31.06L169.183,437.256z"/>
						</defs>
						<clipPath id="SVGID_8_">
							<use xlink:href="#SVGID_7_"  overflow="visible"/>
						</clipPath>
						<rect x="-361.834" y="436.637" clip-path="url(#SVGID_8_)" fill="#FFFFFF" width="772.142" height="125.097"/>
					</g>
				</g>
			</g>
			<path fill="#FFFFFF" d="M543.872,371.604c0.002,17.151-13.905,31.059-31.06,31.058l-274.35,0.001
				c-17.15,0-31.058-13.905-31.058-31.058l0,0c0-17.153,13.905-31.06,31.058-31.06l274.35,0.001
				C529.967,340.546,543.875,354.451,543.872,371.604L543.872,371.604z"/>
			<path fill="#FFFFFF" d="M593.063,471.499c0,17.155-13.904,31.06-31.058,31.059l-125.958-0.001
				c-17.152,0.002-31.063-13.901-31.059-31.058l0,0c-0.004-17.151,13.902-31.06,31.057-31.058l125.958-0.001
				C579.159,440.443,593.061,454.348,593.063,471.499L593.063,471.499z"/>
			<path fill="#FFFFFF" d="M177.099,68.508c-0.002,17.153-13.904,31.06-31.06,31.06l-216.82-0.001
				c-17.15,0.001-31.06-13.902-31.06-31.06l0,0c-0.002-17.149,13.907-31.061,31.061-31.059h216.817
				C163.194,37.449,177.098,51.355,177.099,68.508L177.099,68.508z"/>
			<path fill="#FFFFFF" d="M194.62,746.001c0,17.154-13.903,31.059-31.058,31.06l-216.819-0.001
				c-17.151,0.002-31.062-13.902-31.058-31.059l0,0c-0.002-17.15,13.904-31.058,31.058-31.057l216.815-0.003
				C180.717,714.947,194.62,728.85,194.62,746.001L194.62,746.001z"/>
			<path fill="#FFFFFF" d="M472.536,221.288c-0.003,17.833-14.459,32.288-32.291,32.289c-17.829,0-32.285-14.456-32.284-32.283
				c0.001-17.833,14.456-32.289,32.289-32.29C458.077,189.003,472.533,203.459,472.536,221.288z"/>
			<path fill="#FFFFFF" d="M624.387,370.221c-0.002,17.834-14.458,32.29-32.291,32.291c-17.83-0.001-32.285-14.457-32.283-32.286
				c0-17.833,14.455-32.287,32.289-32.288C609.93,337.936,624.385,352.391,624.387,370.221z"/>
			<path fill="#FFFFFF" d="M-105.671,744.011c-0.002,17.832-14.457,32.288-32.289,32.289c-17.829-0.001-32.285-14.457-32.285-32.284
				c0.001-17.833,14.456-32.289,32.287-32.29C-120.126,711.726-105.671,726.181-105.671,744.011z"/>
		</g>
	</g>
</g>
<rect y="0" opacity="0.8" fill="#00ACE8" enable-background="new    " width="1280" height="800"/>
</svg>
