<?xml version="1.0" encoding="utf-8"?>
<!-- Generator: Adobe Illustrator 16.0.0, SVG Export Plug-In . SVG Version: 6.00 Build 0)  -->
<!DOCTYPE svg PUBLIC "-//W3C//DTD SVG 1.1//EN" "http://www.w3.org/Graphics/SVG/1.1/DTD/svg11.dtd">
<svg version="1.1" id="Calque_1" xmlns="http://www.w3.org/2000/svg" xmlns:xlink="http://www.w3.org/1999/xlink" x="0px" y="0px"
	 width="1280px" height="800px" viewBox="0 0 1280 800" enable-background="new 0 0 1280 800" xml:space="preserve">
<path fill="#3793D1" d="M1280,800H0V0h1280V800z"/>
<g>
	<g>
		<g>
			<g>
				<g>
					<path id="SVGID_1_" fill="#FFFFFF" d="M1110.817,362.745c16.565,0.635,22.571,9.751,24.587,15.07
						c2.549,6.735,2.396,9.412,2.611,15.539c0,0.146-0.01,0.293-0.01,0.442c-0.002,17.152,13.905,31.059,31.06,31.057l54.353,0.002
						c17.15,0,31.058,13.904,31.059,31.059c-0.001,17.153-13.907,31.06-31.059,31.06h-178.59
						c-16.403,0.001-29.832,12.726-30.968,28.841l-0.09-0.084c-0.429,8.197,0.166,10.604-2.732,18.263
						c-2.015,5.319-8.02,14.437-24.588,15.068l-65.854,0.028c-17.151,0-31.06,13.904-31.059,31.058
						c-0.001,17.154,13.905,31.06,31.059,31.06l42.848,0.001c16.568,0.633,22.574,9.748,24.588,15.067
						c2.261,5.965,2.396,8.754,2.549,13.564c-0.062,0.8-0.104,1.607-0.104,2.424c0,17.153,13.908,31.06,31.06,31.06l574.578,0.001
						c17.154,0.001,31.059-13.905,31.059-31.06c-0.002-17.151-13.906-31.058-31.059-31.057h-50.496
						c-17.15,0-31.059-13.905-31.059-31.06c0-17.153,13.905-31.06,31.059-31.059l104.849,0.001
						c17.152-0.002,31.059-13.907,31.059-31.062c-0.001-17.15-13.906-31.057-31.059-31.058l-93.176,0.001
						c-17.152-0.001-31.058-13.905-31.059-31.059c0-17.153,13.907-31.061,31.059-31.061H1774.7
						c17.151,0,31.058-13.904,31.058-31.059c0.001-17.153-13.904-31.058-31.059-31.057l-178.585-0.001
						c-17.152,0-31.058-13.904-31.057-31.058c-0.002-17.151,13.904-31.058,31.057-31.059h-6.901
						c17.152,0,31.059-13.903,31.059-31.057c0-17.153-13.905-31.059-31.058-31.059h-12.538c-17.151,0-31.058-13.905-31.058-31.059
						c0-17.151,13.905-31.06,31.059-31.058l-3.854-0.002c17.151,0.002,31.058-13.903,31.06-31.055
						c0-17.153-13.907-31.062-31.062-31.061H998.243c-17.151,0-31.059,13.906-31.057,31.057
						c-0.001,17.153,13.903,31.059,31.058,31.058l15.528,0.002c17.153,0,31.057,13.904,31.058,31.057
						c0,17.153-13.904,31.06-31.059,31.059H911.968c-17.15,0.001-31.058,13.906-31.057,31.059
						c-0.002,17.153,13.903,31.058,31.059,31.057l4.979,0.001c13.519,1.831,18.698,9.858,20.537,14.72
						c2.441,6.447,2.404,9.187,2.589,14.781c-0.026,0.513-0.039,1.035-0.04,1.557c0.001,17.152,13.907,31.06,31.061,31.06
						L1110.817,362.745z"/>
				</g>
				<g>
					<defs>
						<path id="SVGID_2_" d="M1110.817,362.745c16.565,0.635,22.571,9.751,24.587,15.07c2.549,6.735,2.396,9.412,2.611,15.539
							c0,0.146-0.01,0.293-0.01,0.442c-0.002,17.152,13.905,31.059,31.06,31.057l54.353,0.002c17.15,0,31.058,13.904,31.059,31.059
							c-0.001,17.153-13.907,31.06-31.059,31.06h-178.59c-16.403,0.001-29.832,12.726-30.968,28.841l-0.09-0.084
							c-0.429,8.197,0.166,10.604-2.732,18.263c-2.015,5.319-8.02,14.437-24.588,15.068l-65.854,0.028
							c-17.151,0-31.06,13.904-31.059,31.058c-0.001,17.154,13.905,31.06,31.059,31.06l42.848,0.001
							c16.568,0.633,22.574,9.748,24.588,15.067c2.261,5.965,2.396,8.754,2.549,13.564c-0.062,0.8-0.104,1.607-0.104,2.424
							c0,17.153,13.908,31.06,31.06,31.06l574.578,0.001c17.154,0.001,31.059-13.905,31.059-31.06
							c-0.002-17.151-13.906-31.058-31.059-31.057h-50.496c-17.15,0-31.059-13.905-31.059-31.06
							c0-17.153,13.905-31.06,31.059-31.059l104.849,0.001c17.152-0.002,31.059-13.907,31.059-31.062
							c-0.001-17.15-13.906-31.057-31.059-31.058l-93.176,0.001c-17.152-0.001-31.058-13.905-31.059-31.059
							c0-17.153,13.907-31.061,31.059-31.061H1774.7c17.151,0,31.058-13.904,31.058-31.059
							c0.001-17.153-13.904-31.058-31.059-31.057l-178.585-0.001c-17.152,0-31.058-13.904-31.057-31.058
							c-0.002-17.151,13.904-31.058,31.057-31.059h-6.901c17.152,0,31.059-13.903,31.059-31.057
							c0-17.153-13.905-31.059-31.058-31.059h-12.538c-17.151,0-31.058-13.905-31.058-31.059c0-17.151,13.905-31.06,31.059-31.058
							l-3.854-0.002c17.151,0.002,31.058-13.903,31.06-31.055c0-17.153-13.907-31.062-31.062-31.061H998.243
							c-17.151,0-31.059,13.906-31.057,31.057c-0.001,17.153,13.903,31.059,31.058,31.058l15.528,0.002
							c17.153,0,31.057,13.904,31.058,31.057c0,17.153-13.904,31.06-31.059,31.059H911.968
							c-17.15,0.001-31.058,13.906-31.057,31.059c-0.002,17.153,13.903,31.058,31.059,31.057l4.979,0.001
							c13.519,1.831,18.698,9.858,20.537,14.72c2.441,6.447,2.404,9.187,2.589,14.781c-0.026,0.513-0.039,1.035-0.04,1.557
							c0.001,17.152,13.907,31.06,31.061,31.06L1110.817,362.745z"/>
					</defs>
					<clipPath id="SVGID_4_">
						<use xlink:href="#SVGID_2_"  overflow="visible"/>
					</clipPath>
					<g clip-path="url(#SVGID_4_)">
						<g>
							<g>
								<rect id="SVGID_3_" x="768.324" y="362.735" fill="#FFFFFF" width="1068.867" height="322.213"/>
							</g>
						</g>
					</g>
				</g>
				<g>
					<defs>
						<path id="SVGID_5_" d="M1110.817,362.745c16.565,0.635,22.571,9.751,24.587,15.07c2.549,6.735,2.396,9.412,2.611,15.539
							c0,0.146-0.01,0.293-0.01,0.442c-0.002,17.152,13.905,31.059,31.06,31.057l54.353,0.002c17.15,0,31.058,13.904,31.059,31.059
							c-0.001,17.153-13.907,31.06-31.059,31.06h-178.59c-16.403,0.001-29.832,12.726-30.968,28.841l-0.09-0.084
							c-0.429,8.197,0.166,10.604-2.732,18.263c-2.015,5.319-8.02,14.437-24.588,15.068l-65.854,0.028
							c-17.151,0-31.06,13.904-31.059,31.058c-0.001,17.154,13.905,31.06,31.059,31.06l42.848,0.001
							c16.568,0.633,22.574,9.748,24.588,15.067c2.261,5.965,2.396,8.754,2.549,13.564c-0.062,0.8-0.104,1.607-0.104,2.424
							c0,17.153,13.908,31.06,31.06,31.06l574.578,0.001c17.154,0.001,31.059-13.905,31.059-31.06
							c-0.002-17.151-13.906-31.058-31.059-31.057h-50.496c-17.15,0-31.059-13.905-31.059-31.06
							c0-17.153,13.905-31.06,31.059-31.059l104.849,0.001c17.152-0.002,31.059-13.907,31.059-31.062
							c-0.001-17.15-13.906-31.057-31.059-31.058l-93.176,0.001c-17.152-0.001-31.058-13.905-31.059-31.059
							c0-17.153,13.907-31.061,31.059-31.061H1774.7c17.151,0,31.058-13.904,31.058-31.059
							c0.001-17.153-13.904-31.058-31.059-31.057l-178.585-0.001c-17.152,0-31.058-13.904-31.057-31.058
							c-0.002-17.151,13.904-31.058,31.057-31.059h-6.901c17.152,0,31.059-13.903,31.059-31.057
							c0-17.153-13.905-31.059-31.058-31.059h-12.538c-17.151,0-31.058-13.905-31.058-31.059c0-17.151,13.905-31.06,31.059-31.058
							l-3.854-0.002c17.151,0.002,31.058-13.903,31.06-31.055c0-17.153-13.907-31.062-31.062-31.061H998.243
							c-17.151,0-31.059,13.906-31.057,31.057c-0.001,17.153,13.903,31.059,31.058,31.058l15.528,0.002
							c17.153,0,31.057,13.904,31.058,31.057c0,17.153-13.904,31.06-31.059,31.059H911.968
							c-17.15,0.001-31.058,13.906-31.057,31.059c-0.002,17.153,13.903,31.058,31.059,31.057l4.979,0.001
							c13.519,1.831,18.698,9.858,20.537,14.72c2.441,6.447,2.404,9.187,2.589,14.781c-0.026,0.513-0.039,1.035-0.04,1.557
							c0.001,17.152,13.907,31.06,31.061,31.06L1110.817,362.745z"/>
					</defs>
					<clipPath id="SVGID_6_">
						<use xlink:href="#SVGID_5_"  overflow="visible"/>
					</clipPath>
					<rect x="897.296" y="110.582" clip-path="url(#SVGID_6_)" fill="#FFFFFF" width="772.145" height="128.546"/>
				</g>
				<g>
					<defs>
						<path id="SVGID_7_" d="M1110.817,362.745c16.565,0.635,22.571,9.751,24.587,15.07c2.549,6.735,2.396,9.412,2.611,15.539
							c0,0.146-0.01,0.293-0.01,0.442c-0.002,17.152,13.905,31.059,31.06,31.057l54.353,0.002c17.15,0,31.058,13.904,31.059,31.059
							c-0.001,17.153-13.907,31.06-31.059,31.06h-178.59c-16.403,0.001-29.832,12.726-30.968,28.841l-0.09-0.084
							c-0.429,8.197,0.166,10.604-2.732,18.263c-2.015,5.319-8.02,14.437-24.588,15.068l-65.854,0.028
							c-17.151,0-31.06,13.904-31.059,31.058c-0.001,17.154,13.905,31.06,31.059,31.06l42.848,0.001
							c16.568,0.633,22.574,9.748,24.588,15.067c2.261,5.965,2.396,8.754,2.549,13.564c-0.062,0.8-0.104,1.607-0.104,2.424
							c0,17.153,13.908,31.06,31.06,31.06l574.578,0.001c17.154,0.001,31.059-13.905,31.059-31.06
							c-0.002-17.151-13.906-31.058-31.059-31.057h-50.496c-17.15,0-31.059-13.905-31.059-31.06
							c0-17.153,13.905-31.06,31.059-31.059l104.849,0.001c17.152-0.002,31.059-13.907,31.059-31.062
							c-0.001-17.15-13.906-31.057-31.059-31.058l-93.176,0.001c-17.152-0.001-31.058-13.905-31.059-31.059
							c0-17.153,13.907-31.061,31.059-31.061H1774.7c17.151,0,31.058-13.904,31.058-31.059
							c0.001-17.153-13.904-31.058-31.059-31.057l-178.585-0.001c-17.152,0-31.058-13.904-31.057-31.058
							c-0.002-17.151,13.904-31.058,31.057-31.059h-6.901c17.152,0,31.059-13.903,31.059-31.057
							c0-17.153-13.905-31.059-31.058-31.059h-12.538c-17.151,0-31.058-13.905-31.058-31.059c0-17.151,13.905-31.06,31.059-31.058
							l-3.854-0.002c17.151,0.002,31.058-13.903,31.06-31.055c0-17.153-13.907-31.062-31.062-31.061H998.243
							c-17.151,0-31.059,13.906-31.057,31.057c-0.001,17.153,13.903,31.059,31.058,31.058l15.528,0.002
							c17.153,0,31.057,13.904,31.058,31.057c0,17.153-13.904,31.06-31.059,31.059H911.968
							c-17.15,0.001-31.058,13.906-31.057,31.059c-0.002,17.153,13.903,31.058,31.059,31.057l4.979,0.001
							c13.519,1.831,18.698,9.858,20.537,14.72c2.441,6.447,2.404,9.187,2.589,14.781c-0.026,0.513-0.039,1.035-0.04,1.557
							c0.001,17.152,13.907,31.06,31.061,31.06L1110.817,362.745z"/>
					</defs>
					<clipPath id="SVGID_8_">
						<use xlink:href="#SVGID_7_"  overflow="visible"/>
					</clipPath>
					<rect x="869.692" y="238.267" clip-path="url(#SVGID_8_)" fill="#FFFFFF" width="772.142" height="125.097"/>
				</g>
			</g>
			<path fill="#FFFFFF" d="M736.128,428.397c-0.002-17.151,13.905-31.059,31.06-31.058l274.349-0.001
				c17.151,0,31.058,13.906,31.058,31.058l0,0c0,17.153-13.905,31.06-31.058,31.06l-274.35-0.001
				C750.033,459.455,736.125,445.549,736.128,428.397L736.128,428.397z"/>
			<path fill="#FFFFFF" d="M686.937,328.501c0.001-17.155,13.905-31.059,31.058-31.058l125.958,0.001
				c17.153-0.002,31.063,13.901,31.059,31.057l0,0c0.004,17.152-13.903,31.06-31.057,31.058l-125.958,0.001
				C700.841,359.558,686.939,345.653,686.937,328.501L686.937,328.501z"/>
			<path fill="#FFFFFF" d="M1102.901,731.493c0.002-17.154,13.905-31.06,31.06-31.06l216.82,0.001
				c17.151-0.001,31.06,13.902,31.06,31.06l0,0c0.002,17.149-13.907,31.06-31.061,31.058h-216.817
				C1116.806,762.551,1102.902,748.646,1102.901,731.493L1102.901,731.493z"/>
			<path fill="#FFFFFF" d="M1085.38,53.999c0-17.154,13.903-31.058,31.058-31.059l216.819,0.001
				c17.151-0.002,31.061,13.902,31.058,31.058l0,0c0.001,17.151-13.905,31.058-31.058,31.057l-216.816,0.003
				C1099.283,85.054,1085.38,71.151,1085.38,53.999L1085.38,53.999z"/>
			<path fill="#FFFFFF" d="M807.464,578.712c0.003-17.833,14.459-32.288,32.291-32.289c17.829,0,32.285,14.456,32.284,32.284
				c-0.001,17.833-14.456,32.289-32.289,32.29C821.923,610.998,807.467,596.542,807.464,578.712z"/>
			<path fill="#FFFFFF" d="M655.613,429.78c0.002-17.834,14.458-32.29,32.291-32.291c17.83,0.001,32.285,14.457,32.284,32.286
				c0,17.833-14.456,32.287-32.289,32.288C670.07,462.065,655.615,447.61,655.613,429.78z"/>
			<path fill="#FFFFFF" d="M1385.671,55.99c0.002-17.833,14.457-32.289,32.289-32.29c17.829,0.001,32.285,14.457,32.285,32.285
				c-0.001,17.833-14.456,32.289-32.287,32.29C1400.126,88.275,1385.671,73.82,1385.671,55.99z"/>
		</g>
	</g>
</g>
<rect x="0" opacity="0.8" fill="#00ACE8" enable-background="new    " width="1280" height="800"/>
</svg>
