<?xml version="1.0" encoding="utf-8"?>
<!-- Generator: Adobe Illustrator 16.0.0, SVG Export Plug-In . SVG Version: 6.00 Build 0)  -->
<!DOCTYPE svg PUBLIC "-//W3C//DTD SVG 1.1//EN" "http://www.w3.org/Graphics/SVG/1.1/DTD/svg11.dtd">
<svg version="1.1" id="Calque_1" xmlns="http://www.w3.org/2000/svg" xmlns:xlink="http://www.w3.org/1999/xlink" x="0px" y="0px"
	 width="1280px" height="800px" viewBox="0 0 1280 800" enable-background="new 0 0 1280 800" xml:space="preserve">
<g>
	<path fill="#00ACE8" stroke="#00ACE8" stroke-width="0.25" stroke-miterlimit="10" d="M102.989,294.329V541.45H2.457V203.454
		h129.009c39.286,0,69.742,9.742,91.37,29.219c24.1,21.79,36.152,49.442,36.152,82.952c0,34.171-14.942,62.98-44.818,86.418
		l57.941,139.407H166.626l-48.78-108.951v-86.913h7.924c21.128,0,31.695-9.076,31.695-27.238c0-16.009-12.219-24.019-36.647-24.019
		H102.989z"/>
	<path fill="#00ACE8" stroke="#00ACE8" stroke-width="0.25" stroke-miterlimit="10" d="M391.463,294.577V541.45h-92.609V294.577
		H391.463z M345.406,184.387c12.543,0,23.4,4.418,32.563,13.247c9.162,8.833,13.742,19.276,13.742,31.324
		c0,12.876-4.333,23.442-13,31.695c-8.667,8.257-19.771,12.381-33.306,12.381c-13.538,0-24.638-4.124-33.304-12.381
		c-8.667-8.252-13-18.819-13-31.695c0-12.048,4.581-22.491,13.743-31.324C322.007,188.806,332.859,184.387,345.406,184.387z"/>
	<path fill="#00ACE8" stroke="#00ACE8" stroke-width="0.25" stroke-miterlimit="10" d="M597.976,203.454h92.608v205.771
		c0,37.804-9.904,68.588-29.713,92.359c-11.392,13.705-25.878,24.601-43.457,32.686c-17.581,8.089-35.618,12.135-54.104,12.135
		c-36.814,0-67.848-12.381-93.104-37.145c-25.257-24.761-37.885-55.132-37.885-91.122c0-34.829,12.543-64.957,37.639-90.38
		c25.09-25.419,54.804-38.133,89.142-38.133c5.447,0,13.7,0.496,24.762,1.485v102.019c-7.595-5.942-15.189-8.914-22.78-8.914
		c-9.576,0-17.79,3.509-24.639,10.524c-6.852,7.019-10.275,15.476-10.275,25.381c0,9.576,3.548,17.789,10.646,24.638
		c7.096,6.854,15.6,10.275,25.505,10.275c23.771,0,35.657-16.424,35.657-49.275L597.976,203.454L597.976,203.454z"/>
	<path fill="#00ACE8" stroke="#00ACE8" stroke-width="0.25" stroke-miterlimit="10" d="M871.098,439.681v84.933
		c-13.371,4.953-26.166,7.429-38.38,7.429c-29.881,0-55.182-11.304-75.896-33.923c-20.719-22.614-31.076-50.268-31.076-82.952
		c0-35.323,12.463-65.123,37.391-89.39c24.924-24.266,55.549-36.399,91.866-36.399c19.313,0,37.8,3.881,55.466,11.638
		c17.663,7.762,31.529,18.162,41.6,31.2c16.838,21.628,25.258,52.99,25.258,94.094v81.22c0,44.074-12.506,79.855-37.515,107.342
		s-57.57,41.229-97.687,41.229c-12.218,0-27.65-3.056-46.304-9.162v-84.188c12.048,6.602,24.268,9.904,36.647,9.904
		c16.672,0,29.548-5.489,38.628-16.467c9.076-10.979,13.619-26.698,13.619-47.171V416.16c0-25.915-10.485-38.876-31.447-38.876
		c-8.914,0-16.714,3.428-23.4,10.276c-6.686,6.852-10.027,14.732-10.027,23.647c0,9.409,3.177,17.252,9.532,23.523
		c6.354,6.274,14.239,9.408,23.647,9.408C859.293,444.138,865.317,442.652,871.098,439.681z"/>
	<path fill="#00ACE8" stroke="#00ACE8" stroke-width="0.25" stroke-miterlimit="10" d="M1274.467,432.995h-140.399
		c-2.146-7.096-3.219-13.619-3.219-19.562c0-8.254,1.485-16.344,4.457-24.268h47.048c-3.305-18.323-13.619-27.485-30.953-27.485
		c-11.557,0-20.965,4.914-28.229,14.733c-7.267,9.824-10.896,22.41-10.896,37.762c0,16.014,3.506,28.971,10.523,38.876
		c7.016,9.904,16.219,14.856,27.608,14.856c9.243,0,18.157-4.618,26.742-13.866l52.743,63.39
		c-24.601,19.314-51.918,28.973-81.961,28.973c-36.647,0-67.438-12.295-92.361-36.896c-24.928-24.595-37.391-55.052-37.391-91.37
		c0-36.152,12.586-66.69,37.762-91.618c25.171-24.924,56.085-37.39,92.732-37.39c35.817,0,65.904,12.176,90.257,36.524
		c24.348,24.352,36.522,54.352,36.522,90.009C1275.457,419.295,1275.123,425.071,1274.467,432.995z"/>
</g>
</svg>
