<?xml version="1.0" encoding="iso-8859-1"?>
<!-- Generator: Adobe Illustrator 19.0.0, SVG Export Plug-In . SVG Version: 6.00 Build 0)  -->
<svg version="1.1" id="Capa_1" xmlns="http://www.w3.org/2000/svg" xmlns:xlink="http://www.w3.org/1999/xlink" x="0px" y="0px"
	 viewBox="0 0 512 512" style="enable-background:new 0 0 512 512;" xml:space="preserve">
<circle style="fill:#B9EAFF;" cx="256" cy="256" r="256"/>
<path style="fill:#35CCFF;" d="M512,256c0-10.316-0.628-20.484-1.814-30.48L393.667,109L93.472,390.999l116.954,116.954
	C225.216,510.61,240.445,512,256,512C397.385,512,512,397.385,512,256z"/>
<rect x="153.78" y="109" style="fill:#FF6838;" width="194.47" height="270.74"/>
<rect x="255.95" y="109" style="fill:#AE4E32;" width="92.3" height="270.74"/>
<rect x="327.87" y="109" style="fill:#8E3A26;" width="65.793" height="270.74"/>
<g>
	<path style="fill:#722516;" d="M394.562,166.351h-66.688v-22.876h66.688c6.317,0,11.438,5.121,11.438,11.438l0,0
		C406,161.229,400.879,166.351,394.562,166.351z"/>
	<path style="fill:#722516;" d="M394.562,338.311h-66.688v-22.876h66.688c6.317,0,11.438,5.121,11.438,11.438l0,0
		C406,333.189,400.879,338.311,394.562,338.311z"/>
	<path style="fill:#722516;" d="M394.562,252.331h-66.688v-22.876h66.688c6.317,0,11.438,5.121,11.438,11.438l0,0
		C406,247.209,400.879,252.331,394.562,252.331z"/>
</g>
<path style="fill:#FFECB3;" d="M118.87,388.612h175.74v-61.74H118.87c-17.049,0-30.87,13.821-30.87,30.87l0,0
	C88,374.791,101.821,388.612,118.87,388.612z"/>
<rect x="197.15" y="326.87" style="fill:#FFD863;" width="97.46" height="61.74"/>
<path style="fill:#662E57;" d="M305.609,399.612H118.87c-23.087,0-41.87-18.783-41.87-41.87s18.783-41.87,41.87-41.87h186.739v22
	H118.87c-10.956,0-19.87,8.914-19.87,19.87s8.914,19.87,19.87,19.87h186.739V399.612z"/>
<g>
	<rect x="197.15" y="315.87" style="fill:#590F38;" width="108.46" height="22"/>
	<rect x="197.15" y="377.61" style="fill:#590F38;" width="108.46" height="22"/>
</g>
<rect x="184" y="154.91" style="fill:#AE4E32;" width="108.5" height="71.09"/>
<rect x="255.95" y="154.91" style="fill:#8E3A26;" width="36.548" height="71.09"/>
<g>
</g>
<g>
</g>
<g>
</g>
<g>
</g>
<g>
</g>
<g>
</g>
<g>
</g>
<g>
</g>
<g>
</g>
<g>
</g>
<g>
</g>
<g>
</g>
<g>
</g>
<g>
</g>
<g>
</g>
</svg>
