<?xml version="1.0" encoding="iso-8859-1"?>
<!-- Generator: Adobe Illustrator 19.0.0, SVG Export Plug-In . SVG Version: 6.00 Build 0)  -->
<svg version="1.1" id="Layer_1" xmlns="http://www.w3.org/2000/svg" xmlns:xlink="http://www.w3.org/1999/xlink" x="0px" y="0px"
	 viewBox="0 0 512 512" style="enable-background:new 0 0 512 512;" xml:space="preserve">
<circle style="fill:#E6F3FF;" cx="256" cy="256" r="256"/>
<path style="fill:#CFDBE6;" d="M267.488,511.731c125.764-5.556,227.937-101.841,242.671-225.006l-52.991-52.993
	c0,0-2.065,1.276-4.953,3.058L380.4,164.978c0,0-56.311,35.121-82.134,51.228C240.33,242.683,74.999,318.2,73.956,318.2
	L267.488,511.731z"/>
<rect x="73.956" y="164.978" style="fill:#2C9984;" width="306.441" height="153.221"/>
<rect x="228.417" y="164.978" style="fill:#258472;" width="151.98" height="153.221"/>
<rect x="85.109" y="174.735" style="fill:#90DFAA;" width="284.151" height="133.723"/>
<rect x="228.417" y="174.735" style="fill:#77C68D;" width="140.843" height="133.723"/>
<ellipse style="fill:#2C9984;" cx="227.176" cy="241.588" rx="30.644" ry="45.966"/>
<path style="fill:#258472;" d="M257.822,241.588c0-24.762-13.055-44.942-29.405-45.92v91.839
	C244.767,286.53,257.822,266.352,257.822,241.588z"/>
<path style="fill:#324A5E;" d="M402.285,207.588h-47.114c-11.883,10.216-29.382,20.327-54.881,26.146v64.569
	c0,32.535,18.382,62.28,47.483,76.829l30.954,15.477l30.954-15.477c29.101-14.55,47.483-44.294,47.483-76.829v-64.569
	C431.669,227.914,414.168,217.802,402.285,207.588z"/>
<path style="fill:#2B3B4E;" d="M402.285,207.588h-23.312v182.9l30.71-15.355c29.101-14.55,47.483-44.294,47.483-76.829v-64.569
	C431.669,227.914,414.168,217.802,402.285,207.588z"/>
<path style="fill:#FD8469;" d="M398.36,222.839h-39.262c-9.902,8.513-24.486,16.939-45.733,21.788v53.807
	c0,27.114,15.319,51.9,39.571,64.024l25.795,12.898l25.795-12.898c24.25-12.126,39.57-36.912,39.57-64.024v-53.807
	C422.846,239.778,408.262,231.352,398.36,222.839z"/>
<path style="fill:#FC6F58;" d="M398.36,222.839h-19.387v152.395l25.55-12.776c24.25-12.126,39.569-36.912,39.569-64.024v-53.807
	C422.846,239.778,408.262,231.352,398.36,222.839z"/>
<polygon style="fill:#C1321F;" points="410.857,274.666 401.105,264.916 380.121,285.898 359.14,264.916 349.387,274.666 
	370.371,295.65 349.387,316.633 359.14,326.384 380.121,305.402 401.105,326.384 410.857,316.633 389.873,295.65 "/>
<polygon style="fill:#A82116;" points="410.857,274.666 401.105,264.916 380.121,285.898 378.973,284.75 378.973,306.55 
	380.121,305.402 401.105,326.384 410.857,316.633 389.873,295.65 "/>
<g>
</g>
<g>
</g>
<g>
</g>
<g>
</g>
<g>
</g>
<g>
</g>
<g>
</g>
<g>
</g>
<g>
</g>
<g>
</g>
<g>
</g>
<g>
</g>
<g>
</g>
<g>
</g>
<g>
</g>
</svg>
