<?xml version="1.0" encoding="iso-8859-1"?>
<!-- Generator: Adobe Illustrator 19.0.0, SVG Export Plug-In . SVG Version: 6.00 Build 0)  -->
<svg version="1.1" id="Layer_1" xmlns="http://www.w3.org/2000/svg" xmlns:xlink="http://www.w3.org/1999/xlink" x="0px" y="0px"
	 viewBox="0 0 512 512" style="enable-background:new 0 0 512 512;" xml:space="preserve">
<circle style="fill:#B5F1F4;" cx="256" cy="256" r="256"/>
<path style="fill:#84DBFF;" d="M510.581,283.026L312.889,85.333c0.862,0.862-113.778,227.556-113.778,227.556l0,0
	c0,0-57.547,114.436-56.889,113.778l83.547,83.547C235.686,511.381,245.77,512,256,512C388.256,512,497.078,411.705,510.581,283.026
	z"/>
<rect x="199.111" y="85.333" style="fill:#324A5E;" width="113.778" height="341.333"/>
<rect x="257.155" y="85.333" style="fill:#2B3B4E;" width="55.734" height="341.333"/>
<rect x="142.222" y="227.556" style="fill:#F9B54C;" width="113.778" height="199.111"/>
<rect x="199.111" y="227.556" style="fill:#F4A200;" width="56.889" height="199.111"/>
<g>
	<rect x="215.488" y="105.158" style="fill:#F4E3C3;" width="81.024" height="18.963"/>
	<rect x="215.488" y="143.084" style="fill:#F4E3C3;" width="81.024" height="18.963"/>
	<rect x="215.488" y="181.01" style="fill:#F4E3C3;" width="81.024" height="18.963"/>
</g>
<g>
	<rect x="257.155" y="105.158" style="fill:#FED8B2;" width="39.362" height="18.963"/>
	<rect x="257.155" y="143.084" style="fill:#FED8B2;" width="39.362" height="18.963"/>
	<rect x="257.155" y="181.01" style="fill:#FED8B2;" width="39.362" height="18.963"/>
</g>
<rect x="284.444" y="170.667" style="fill:#FC6F58;" width="113.778" height="256"/>
<rect x="342.195" y="170.667" style="fill:#F1543F;" width="56.027" height="256"/>
<g>
	<rect x="298.667" y="188.337" style="fill:#F9B54C;" width="28.444" height="28.444"/>
	<rect x="355.556" y="188.337" style="fill:#F9B54C;" width="28.444" height="28.444"/>
	<rect x="298.667" y="233.693" style="fill:#F9B54C;" width="28.444" height="28.444"/>
	<rect x="355.556" y="233.693" style="fill:#F9B54C;" width="28.444" height="28.444"/>
	<rect x="298.667" y="279.049" style="fill:#F9B54C;" width="28.444" height="28.444"/>
	<rect x="355.556" y="279.049" style="fill:#F9B54C;" width="28.444" height="28.444"/>
	<rect x="298.667" y="324.422" style="fill:#F9B54C;" width="28.444" height="28.444"/>
	<rect x="355.556" y="324.422" style="fill:#F9B54C;" width="28.444" height="28.444"/>
	<rect x="298.667" y="369.778" style="fill:#F9B54C;" width="28.444" height="28.444"/>
	<rect x="355.556" y="369.778" style="fill:#F9B54C;" width="28.444" height="28.444"/>
</g>
<g>
	<rect x="158.599" y="246.519" style="fill:#F4E3C3;" width="81.024" height="18.963"/>
	<rect x="158.599" y="284.444" style="fill:#F4E3C3;" width="81.024" height="18.963"/>
	<rect x="158.599" y="322.37" style="fill:#F4E3C3;" width="81.024" height="18.963"/>
</g>
<g>
	<rect x="199.111" y="246.519" style="fill:#FED8B2;" width="40.512" height="18.963"/>
	<rect x="199.111" y="284.444" style="fill:#FED8B2;" width="40.512" height="18.963"/>
	<rect x="199.111" y="322.37" style="fill:#FED8B2;" width="40.512" height="18.963"/>
</g>
<g>
</g>
<g>
</g>
<g>
</g>
<g>
</g>
<g>
</g>
<g>
</g>
<g>
</g>
<g>
</g>
<g>
</g>
<g>
</g>
<g>
</g>
<g>
</g>
<g>
</g>
<g>
</g>
<g>
</g>
</svg>
