<?xml version="1.0" encoding="utf-8"?>
<!-- Generator: Adobe Illustrator 16.0.0, SVG Export Plug-In . SVG Version: 6.00 Build 0)  -->
<!DOCTYPE svg PUBLIC "-//W3C//DTD SVG 1.1//EN" "http://www.w3.org/Graphics/SVG/1.1/DTD/svg11.dtd">
<svg version="1.1" id="Calque_1" xmlns="http://www.w3.org/2000/svg" xmlns:xlink="http://www.w3.org/1999/xlink" x="0px" y="0px"
	 width="512px" height="512px" viewBox="0 0 512 512" enable-background="new 0 0 512 512" xml:space="preserve">
<path fill="#FFD460" d="M512,256c0,141.387-114.613,256-256,256S0,397.387,0,256S114.614,0,256,0S512,114.613,512,256z"/>
<path fill="#FFBE11" d="M319.221,126.438l-83.271-7.347l-68.846,69.779l78.057,77.366l-9.211,74.358l29.169,28.929l-22.893,32.421
	l98.344,96.129c87.965-38.774,140.828-96.503,166.439-186.395L319.221,126.438z"/>
<g>
	<path fill="#8BC0FF" d="M235.95,389.678c0,11.074,8.977,20.051,20.051,20.051l6.683-20.051l-6.683-20.053
		C244.927,369.625,235.95,378.605,235.95,389.678z"/>
	<path fill="#3897FF" d="M256.001,369.625v40.104c11.074,0,20.05-8.977,20.05-20.051
		C276.051,378.605,267.074,369.625,256.001,369.625z"/>
	<path fill="#8BC0FF" d="M242.38,271.111l-6.43,5.953v65.828h20.051l13.369-42.225l-13.369-42.223
		C248.324,265.609,242.524,270.977,242.38,271.111z"/>
	<path fill="#8BC0FF" d="M167.104,191.168h40.104c0-26.906,21.886-48.792,48.792-48.792l13.369-20.054l-13.369-20.051
		C206.983,102.271,167.104,142.15,167.104,191.168z"/>
	<path fill="#3897FF" d="M256.001,102.271v40.104c26.906,0,48.791,21.886,48.791,48.792c0,13.032-5.074,25.285-14.287,34.499
		c-7.229,7.228-22.982,22.027-34.503,32.778v84.447h20.05v-48.318c11.068-10.289,33.332-31.072,42.809-40.547
		c16.789-16.793,26.037-39.117,26.037-62.859C344.897,142.15,305.016,102.271,256.001,102.271z"/>
</g>
</svg>
