<?xml version="1.0" encoding="iso-8859-1"?>
<!-- Generator: Adobe Illustrator 19.0.0, SVG Export Plug-In . SVG Version: 6.00 Build 0)  -->
<svg version="1.1" id="Layer_1" xmlns="http://www.w3.org/2000/svg" xmlns:xlink="http://www.w3.org/1999/xlink" x="0px" y="0px"
	 viewBox="0 0 512 512" style="enable-background:new 0 0 512 512;" xml:space="preserve">
<circle style="fill:#E6F3FF;" cx="256" cy="256" r="256"/>
<path style="fill:#CFDBE6;" d="M512,256c0-30.591-5.375-59.925-15.217-87.119L343.119,15.217c0.76,0.76-4.075,79.453-8.295,145.789
	L184.077,10.259l-13.121,303.14l-53.136,76.707L240.28,511.505C245.481,511.821,250.72,512,256,512C397.384,512,512,397.384,512,256
	z"/>
<path style="fill:#FC6F58;" d="M211.999,398.222h-74.805c-15.012,0-27.183-12.171-27.183-27.183V219.015
	c0-9.088,4.542-17.575,12.104-22.618l52.481-34.987l52.481,34.987c7.563,5.041,12.104,13.529,12.104,22.618V371.04
	C239.182,386.051,227.011,398.222,211.999,398.222z"/>
<path style="fill:#F1543F;" d="M227.076,196.398l-52.481-34.987l-0.191,0.128v236.684h37.595c15.012,0,27.183-12.171,27.183-27.183
	V219.015C239.182,209.925,234.639,201.438,227.076,196.398z"/>
<path style="fill:#31BAFD;" d="M371.041,346.821h-74.805c-15.012,0-27.183-12.171-27.183-27.183V167.614
	c0-9.088,4.542-17.575,12.104-22.618l52.481-34.987l52.481,34.987c7.563,5.041,12.104,13.529,12.104,22.618v152.024
	C398.224,334.651,386.053,346.821,371.041,346.821z"/>
<path style="fill:#2B9ED8;" d="M386.119,144.996l-52.255-34.837v236.661h37.176c15.012,0,27.183-12.171,27.183-27.183V167.614
	C398.224,158.525,393.681,150.038,386.119,144.996z"/>
<path style="fill:#324A5E;" d="M165.114,16.624v182.487h18.963V10.259C177.647,12.138,171.323,14.264,165.114,16.624z"/>
<path style="fill:#2B3B4E;" d="M184.077,10.259c-3.253,0.95-6.477,1.965-9.673,3.041v185.811h9.673V10.259z"/>
<path style="fill:#324A5E;" d="M324.156,9.19v133.032h18.963V15.217C336.908,12.969,330.581,10.961,324.156,9.19z"/>
<path style="fill:#2B3B4E;" d="M343.119,15.217c-3.056-1.107-6.144-2.151-9.254-3.143v130.148h9.254V15.217z"/>
<g>
</g>
<g>
</g>
<g>
</g>
<g>
</g>
<g>
</g>
<g>
</g>
<g>
</g>
<g>
</g>
<g>
</g>
<g>
</g>
<g>
</g>
<g>
</g>
<g>
</g>
<g>
</g>
<g>
</g>
</svg>
