<?xml version="1.0" encoding="iso-8859-1"?>
<!-- Generator: Adobe Illustrator 19.0.0, SVG Export Plug-In . SVG Version: 6.00 Build 0)  -->
<svg version="1.1" id="Layer_1" xmlns="http://www.w3.org/2000/svg" xmlns:xlink="http://www.w3.org/1999/xlink" x="0px" y="0px"
	 viewBox="0 0 512 512" style="enable-background:new 0 0 512 512;" xml:space="preserve">
<circle style="fill:#90DFAA;" cx="256" cy="256" r="256"/>
<path style="fill:#2C9984;" d="M293.228,509.29c52.617-7.692,103.3-31.778,143.793-72.27c40.493-40.493,64.579-91.176,72.27-143.793
	L367.669,152.876l-3.793,14.907l-96.671-96.671l-2.5,55.022h-70.191l-69.244,69.244l-8.62,60.978l-45.54,10.85l94.334,94.334
	l-16.591,2.272L293.228,509.29z"/>
<g>
	<path style="fill:#324A5E;" d="M201.754,201.752c-14.491,14.489-22.471,33.756-22.471,54.248s7.98,39.758,22.471,54.248
		c14.955,14.957,34.601,22.433,54.246,22.433s39.291-7.477,54.246-22.433c29.913-29.913,29.913-78.583,0-108.496
		C280.338,171.842,231.665,171.842,201.754,201.752z M287.087,287.085c-17.141,17.141-45.032,17.141-62.173,0
		c-8.302-8.302-12.876-19.344-12.876-31.085c0-11.742,4.574-22.783,12.876-31.085c8.571-8.571,19.828-12.857,31.087-12.857
		c11.259,0,22.516,4.286,31.087,12.857C304.228,242.055,304.228,269.945,287.087,287.085z"/>
	<path style="fill:#324A5E;" d="M440.889,244.795h-33.34c-2.636-36.376-18.02-70.225-44.07-96.275
		c-26.048-26.048-59.897-41.432-96.273-44.068v-33.34h-22.411v33.34c-36.376,2.636-70.223,18.02-96.273,44.068
		c-26.05,26.05-41.434,59.899-44.07,96.275h-33.34v22.411h33.34c2.636,36.376,18.02,70.225,44.07,96.275
		c26.05,26.048,59.897,41.432,96.273,44.068v33.34h22.411v-33.34c36.376-2.636,70.225-18.02,96.275-44.068
		c26.05-26.05,41.434-59.899,44.07-96.275h33.34v-22.411H440.889z M347.632,347.631c-22.416,22.418-51.071,34.866-80.427,37.392
		v-29.467h-22.411v29.467c-29.356-2.526-58.009-14.974-80.427-37.392c-22.416-22.416-34.864-51.069-37.39-80.425h29.467v-22.411
		h-29.467c2.526-29.356,14.974-58.009,37.39-80.425c22.418-22.418,51.071-34.866,80.427-37.392v29.467h22.411v-29.467
		c29.356,2.526,58.011,14.974,80.427,37.392c22.416,22.416,34.864,51.071,37.39,80.425h-29.467v22.411h29.467
		C382.497,296.562,370.048,325.215,347.632,347.631z"/>
	<polygon style="fill:#324A5E;" points="263.758,229.279 248.242,229.279 248.242,248.242 229.279,248.242 229.279,263.758 
		248.242,263.758 248.242,282.721 263.758,282.721 263.758,263.758 282.721,263.758 282.721,248.242 263.758,248.242 	"/>
</g>
<g>
	<path style="fill:#2B3B4E;" d="M310.248,201.752c-15.32-15.32-35.561-22.773-55.684-22.399v32.737
		c0.479-0.016,0.958-0.034,1.436-0.034c11.257,0,22.516,4.286,31.087,12.857c17.141,17.141,17.141,45.03,0,62.171
		c-8.935,8.935-20.792,13.202-32.523,12.822v32.739c0.479,0.009,0.958,0.034,1.436,0.034c19.646,0,39.291-7.477,54.246-22.433
		C340.159,280.335,340.159,231.665,310.248,201.752z"/>
	<path style="fill:#2B3B4E;" d="M407.549,244.795c-2.636-36.376-18.02-70.225-44.07-96.275
		c-26.048-26.048-59.897-41.432-96.273-44.068v-33.34h-12.641v85.333h12.641v-29.467c29.356,2.526,58.011,14.974,80.427,37.392
		c22.416,22.416,34.864,51.071,37.39,80.425h-29.467v22.411h29.467c-2.526,29.356-14.974,58.009-37.39,80.425
		c-22.416,22.418-51.071,34.866-80.427,37.392v-29.467h-12.641v85.333h12.641v-33.34c36.376-2.636,70.225-18.02,96.275-44.068
		c26.05-26.05,41.434-59.899,44.07-96.275h33.34v-22.411H407.549z"/>
	<polygon style="fill:#2B3B4E;" points="263.758,248.242 263.758,229.279 254.564,229.279 254.564,282.721 263.758,282.721 
		263.758,263.758 282.721,263.758 282.721,248.242 	"/>
</g>
<g>
</g>
<g>
</g>
<g>
</g>
<g>
</g>
<g>
</g>
<g>
</g>
<g>
</g>
<g>
</g>
<g>
</g>
<g>
</g>
<g>
</g>
<g>
</g>
<g>
</g>
<g>
</g>
<g>
</g>
</svg>
