<?xml version="1.0" encoding="iso-8859-1"?>
<!-- Generator: Adobe Illustrator 19.0.0, SVG Export Plug-In . SVG Version: 6.00 Build 0)  -->
<svg version="1.1" id="Capa_1" xmlns="http://www.w3.org/2000/svg" xmlns:xlink="http://www.w3.org/1999/xlink" x="0px" y="0px"
	 viewBox="0 0 512 512" style="enable-background:new 0 0 512 512;" xml:space="preserve">
<circle style="fill:#FF6838;" cx="256" cy="256" r="256"/>
<path style="fill:#AE4E32;" d="M512,256c0-14.006-1.142-27.744-3.307-41.14L375,81.167l-264.582,304.16l125.93,125.93
	C242.834,511.749,249.388,512,256,512C397.385,512,512,397.385,512,256z"/>
<path style="fill:#FFFFFF;" d="M345.25,394.5H137V81.167h238V364.75C375,381.18,361.68,394.5,345.25,394.5z"/>
<g>
	<path style="fill:#E0E0E0;" d="M255.357,81.167V394.5h89.893c16.43,0,29.75-13.32,29.75-29.75V81.167H255.357z"/>
	<path style="fill:#E0E0E0;" d="M345,334.5c-16.569,0-30,13.431-30,30s13.431,30,30,30H132c-16.569,0-30-13.431-30-30
		s13.431-30,30-30H345z"/>
</g>
<path style="fill:#C0C0C0;" d="M315,364.5c0-16.569,13.431-30,30-30h-89.643v60H345C328.431,394.5,315,381.069,315,364.5z"/>
<rect x="163.33" y="114.33" style="fill:#CCCCCC;" width="185.33" height="14.167"/>
<rect x="255.36" y="114.33" style="fill:#B3B3B3;" width="93.31" height="14.167"/>
<rect x="163.33" y="148.77" style="fill:#CCCCCC;" width="185.33" height="14.167"/>
<rect x="255.36" y="148.77" style="fill:#B3B3B3;" width="93.31" height="14.167"/>
<rect x="163.33" y="183.2" style="fill:#CCCCCC;" width="185.33" height="14.167"/>
<rect x="255.36" y="183.2" style="fill:#B3B3B3;" width="93.31" height="14.167"/>
<rect x="163.33" y="217.63" style="fill:#CCCCCC;" width="185.33" height="14.167"/>
<rect x="255.36" y="217.63" style="fill:#B3B3B3;" width="93.31" height="14.167"/>
<rect x="163.33" y="252.07" style="fill:#CCCCCC;" width="185.33" height="14.167"/>
<rect x="255.36" y="252.07" style="fill:#B3B3B3;" width="93.31" height="14.167"/>
<rect x="163.33" y="286.5" style="fill:#CCCCCC;" width="185.33" height="14.167"/>
<rect x="255.36" y="286.5" style="fill:#B3B3B3;" width="93.31" height="14.167"/>
<g>
</g>
<g>
</g>
<g>
</g>
<g>
</g>
<g>
</g>
<g>
</g>
<g>
</g>
<g>
</g>
<g>
</g>
<g>
</g>
<g>
</g>
<g>
</g>
<g>
</g>
<g>
</g>
<g>
</g>
</svg>
