<svg height="512pt" viewBox="0 0 512 512" width="512pt" xmlns="http://www.w3.org/2000/svg"><path d="m512 256c0 141.386719-114.613281 256-256 256s-256-114.613281-256-256 114.613281-256 256-256 256 114.613281 256 256zm0 0" fill="#ffd460"/><path d="m511.632812 269.691406-134.660156-134.664062-13.074218 5.414062-47.414063-48.105468-99.621094 21.347656-21.347656 21.347656-60.488281 56.925781 33.957031 33.726563-19.722656 193.984375 91.894531 91.894531c4.914062.28125 9.859375.4375 14.84375.4375 136.789062 0 248.519531-107.289062 255.632812-242.308594zm0 0" fill="#ffbe11"/><path d="m206.1875 177.726562 14.234375 241.941407h71.15625l14.234375-241.941407zm0 0" fill="#446080"/><path d="m195.515625 92.332031v55.507813h21.347656v-34.160156h39.136719l7.117188-12.09375-7.117188-9.253907zm0 0" fill="#324860"/><path d="m256 92.332031v21.347657h39.136719v34.160156h21.347656v-55.507813zm0 0" fill="#263648"/><path d="m149.261719 177.726562h71.160156v241.941407h-71.160156zm0 0" fill="#6790bf"/><path d="m291.578125 177.726562h71.160156v241.941407h-71.160156zm0 0" fill="#263648"/><path d="m135.027344 135.027344v56.929687h120.972656l14.230469-28.464843-14.230469-28.464844zm0 0" fill="#446080"/><path d="m256 135.027344h120.972656v56.929687h-120.972656zm0 0" fill="#324860"/></svg>