<?xml version="1.0" encoding="iso-8859-1"?>
<!-- Generator: Adobe Illustrator 19.0.0, SVG Export Plug-In . SVG Version: 6.00 Build 0)  -->
<svg version="1.1" id="Capa_1" xmlns="http://www.w3.org/2000/svg" xmlns:xlink="http://www.w3.org/1999/xlink" x="0px" y="0px"
	 viewBox="0 0 512 512" style="enable-background:new 0 0 512 512;" xml:space="preserve">
<circle style="fill:#FFCF35;" cx="256" cy="256" r="256"/>
<path style="fill:#FFB344;" d="M512,256c0-13.249-1.007-26.263-2.947-38.97L397,105.529L115.825,406.471l103.446,102.895
	C231.268,511.09,243.527,512,256,512C397.385,512,512,397.385,512,256z"/>
<rect x="115.83" y="105.53" style="fill:#FF6838;" width="216.16" height="300.94"/>
<rect x="218.45" y="105.53" style="fill:#A34833;" width="113.53" height="300.94"/>
<rect x="323" y="105.53" style="fill:#AE4E32;" width="74" height="300.94"/>
<rect x="360.12" y="105.53" style="fill:#993E29;" width="36.881" height="300.94"/>
<rect x="346" y="153.67" style="fill:#FFB344;" width="28" height="204.67"/>
<rect x="360.12" y="153.67" style="fill:#FF9451;" width="13.881" height="204.67"/>
<g>
	<rect x="148.35" y="215" style="fill:#FFECB3;" width="28" height="104.5"/>
	<rect x="204.35" y="215" style="fill:#FFECB3;" width="28" height="104.5"/>
</g>
<g>
	<rect x="218.45" y="215" style="fill:#FFD863;" width="13.893" height="104.5"/>
	<rect x="260.35" y="215" style="fill:#FFD863;" width="28" height="104.5"/>
	<rect x="137.85" y="300.75" style="fill:#FFD863;" width="159.75" height="28"/>
</g>
<g>
	<rect x="218.45" y="300.75" style="fill:#FFCF35;" width="79.14" height="28"/>
	<rect x="126.22" y="318.25" style="fill:#FFCF35;" width="183" height="27"/>
</g>
<rect x="218.45" y="318.25" style="fill:#FFB344;" width="90.77" height="27"/>
<polygon style="fill:#FFECB3;" points="145.346,201.487 218.346,157.475 291.346,201.504 "/>
<g>
	<polygon style="fill:#FFD863;" points="218.452,157.539 218.452,201.495 291.346,201.504 	"/>
	<rect x="137.85" y="201" style="fill:#FFD863;" width="159.75" height="28"/>
</g>
<rect x="218.45" y="201" style="fill:#FFCF35;" width="79.14" height="28"/>
<g>
</g>
<g>
</g>
<g>
</g>
<g>
</g>
<g>
</g>
<g>
</g>
<g>
</g>
<g>
</g>
<g>
</g>
<g>
</g>
<g>
</g>
<g>
</g>
<g>
</g>
<g>
</g>
<g>
</g>
</svg>
